<mxfile host="Electron" agent="Mozilla/5.0 (Windows NT 10.0; Win64; x64) AppleWebKit/537.36 (KHTML, like Gecko) draw.io/26.2.2 Chrome/134.0.6998.178 Electron/35.1.2 Safari/537.36" version="26.2.2">
  <diagram id="C5RBs43oDa-KdzZeNtuy" name="Page-1">
    <mxGraphModel dx="9681" dy="756" grid="1" gridSize="10" guides="1" tooltips="1" connect="1" arrows="1" fold="1" page="1" pageScale="1" pageWidth="827" pageHeight="1169" math="0" shadow="0">
      <root>
        <mxCell id="WIyWlLk6GJQsqaUBKTNV-0" />
        <mxCell id="WIyWlLk6GJQsqaUBKTNV-1" parent="WIyWlLk6GJQsqaUBKTNV-0" />
        <mxCell id="T-bLrGf81Kj2D1WPhR4u-16" style="rounded=0;orthogonalLoop=1;jettySize=auto;html=1;fontSize=16;entryX=0.531;entryY=-0.013;entryDx=0;entryDy=0;entryPerimeter=0;edgeStyle=orthogonalEdgeStyle;elbow=vertical;curved=1;" parent="WIyWlLk6GJQsqaUBKTNV-1" source="T-bLrGf81Kj2D1WPhR4u-3" target="T-bLrGf81Kj2D1WPhR4u-18" edge="1">
          <mxGeometry relative="1" as="geometry">
            <mxPoint x="110" y="270" as="targetPoint" />
          </mxGeometry>
        </mxCell>
        <mxCell id="T-bLrGf81Kj2D1WPhR4u-19" style="rounded=0;orthogonalLoop=1;jettySize=auto;html=1;entryX=0.5;entryY=0;entryDx=0;entryDy=0;fontSize=16;edgeStyle=orthogonalEdgeStyle;elbow=vertical;curved=1;" parent="WIyWlLk6GJQsqaUBKTNV-1" source="T-bLrGf81Kj2D1WPhR4u-3" target="T-bLrGf81Kj2D1WPhR4u-20" edge="1">
          <mxGeometry relative="1" as="geometry">
            <mxPoint x="455" y="280" as="targetPoint" />
          </mxGeometry>
        </mxCell>
        <mxCell id="T-bLrGf81Kj2D1WPhR4u-30" style="rounded=0;orthogonalLoop=1;jettySize=auto;html=1;fontSize=16;edgeStyle=orthogonalEdgeStyle;elbow=vertical;curved=1;" parent="WIyWlLk6GJQsqaUBKTNV-1" source="T-bLrGf81Kj2D1WPhR4u-3" target="T-bLrGf81Kj2D1WPhR4u-24" edge="1">
          <mxGeometry relative="1" as="geometry" />
        </mxCell>
        <mxCell id="T-bLrGf81Kj2D1WPhR4u-31" style="rounded=0;orthogonalLoop=1;jettySize=auto;html=1;entryX=0.5;entryY=0;entryDx=0;entryDy=0;fontSize=16;edgeStyle=orthogonalEdgeStyle;elbow=vertical;curved=1;" parent="WIyWlLk6GJQsqaUBKTNV-1" source="T-bLrGf81Kj2D1WPhR4u-3" target="T-bLrGf81Kj2D1WPhR4u-26" edge="1">
          <mxGeometry relative="1" as="geometry" />
        </mxCell>
        <mxCell id="T-bLrGf81Kj2D1WPhR4u-32" style="rounded=0;orthogonalLoop=1;jettySize=auto;html=1;entryX=0.5;entryY=0;entryDx=0;entryDy=0;fontSize=16;edgeStyle=orthogonalEdgeStyle;elbow=vertical;curved=1;" parent="WIyWlLk6GJQsqaUBKTNV-1" source="T-bLrGf81Kj2D1WPhR4u-3" target="T-bLrGf81Kj2D1WPhR4u-27" edge="1">
          <mxGeometry relative="1" as="geometry" />
        </mxCell>
        <mxCell id="T-bLrGf81Kj2D1WPhR4u-33" style="rounded=0;orthogonalLoop=1;jettySize=auto;html=1;entryX=0.5;entryY=0;entryDx=0;entryDy=0;fontSize=16;edgeStyle=orthogonalEdgeStyle;elbow=vertical;curved=1;" parent="WIyWlLk6GJQsqaUBKTNV-1" source="T-bLrGf81Kj2D1WPhR4u-3" target="T-bLrGf81Kj2D1WPhR4u-28" edge="1">
          <mxGeometry relative="1" as="geometry" />
        </mxCell>
        <mxCell id="T-bLrGf81Kj2D1WPhR4u-35" style="rounded=0;orthogonalLoop=1;jettySize=auto;html=1;fontSize=16;edgeStyle=orthogonalEdgeStyle;elbow=vertical;curved=1;" parent="WIyWlLk6GJQsqaUBKTNV-1" source="T-bLrGf81Kj2D1WPhR4u-3" target="T-bLrGf81Kj2D1WPhR4u-29" edge="1">
          <mxGeometry relative="1" as="geometry" />
        </mxCell>
        <mxCell id="T-bLrGf81Kj2D1WPhR4u-3" value="&lt;p data-start=&quot;306&quot; data-end=&quot;345&quot; class=&quot;&quot;&gt;&lt;strong data-start=&quot;306&quot; data-end=&quot;343&quot;&gt;Inventory Management System (IMS)&lt;/strong&gt;&lt;/p&gt;&lt;h3 data-start=&quot;347&quot; data-end=&quot;386&quot; class=&quot;&quot;&gt;&lt;/h3&gt;" style="whiteSpace=wrap;html=1;fontSize=16;" parent="WIyWlLk6GJQsqaUBKTNV-1" vertex="1">
          <mxGeometry x="430" y="30" width="310" height="110" as="geometry" />
        </mxCell>
        <mxCell id="T-bLrGf81Kj2D1WPhR4u-46" style="rounded=0;orthogonalLoop=1;jettySize=auto;html=1;entryX=0.5;entryY=0;entryDx=0;entryDy=0;edgeStyle=orthogonalEdgeStyle;elbow=vertical;curved=1;fontSize=16;" parent="WIyWlLk6GJQsqaUBKTNV-1" source="T-bLrGf81Kj2D1WPhR4u-18" target="T-bLrGf81Kj2D1WPhR4u-41" edge="1">
          <mxGeometry relative="1" as="geometry" />
        </mxCell>
        <mxCell id="T-bLrGf81Kj2D1WPhR4u-47" style="rounded=0;orthogonalLoop=1;jettySize=auto;html=1;edgeStyle=orthogonalEdgeStyle;elbow=vertical;curved=1;fontSize=16;" parent="WIyWlLk6GJQsqaUBKTNV-1" source="T-bLrGf81Kj2D1WPhR4u-18" target="T-bLrGf81Kj2D1WPhR4u-42" edge="1">
          <mxGeometry relative="1" as="geometry" />
        </mxCell>
        <mxCell id="T-bLrGf81Kj2D1WPhR4u-48" style="rounded=0;orthogonalLoop=1;jettySize=auto;html=1;edgeStyle=orthogonalEdgeStyle;elbow=vertical;curved=1;fontSize=16;" parent="WIyWlLk6GJQsqaUBKTNV-1" source="T-bLrGf81Kj2D1WPhR4u-18" target="T-bLrGf81Kj2D1WPhR4u-43" edge="1">
          <mxGeometry relative="1" as="geometry" />
        </mxCell>
        <mxCell id="T-bLrGf81Kj2D1WPhR4u-49" style="rounded=0;orthogonalLoop=1;jettySize=auto;html=1;edgeStyle=orthogonalEdgeStyle;elbow=vertical;curved=1;fontSize=16;" parent="WIyWlLk6GJQsqaUBKTNV-1" source="T-bLrGf81Kj2D1WPhR4u-18" target="T-bLrGf81Kj2D1WPhR4u-44" edge="1">
          <mxGeometry relative="1" as="geometry" />
        </mxCell>
        <mxCell id="T-bLrGf81Kj2D1WPhR4u-50" style="rounded=0;orthogonalLoop=1;jettySize=auto;html=1;edgeStyle=orthogonalEdgeStyle;elbow=vertical;curved=1;fontSize=16;" parent="WIyWlLk6GJQsqaUBKTNV-1" source="T-bLrGf81Kj2D1WPhR4u-18" target="T-bLrGf81Kj2D1WPhR4u-45" edge="1">
          <mxGeometry relative="1" as="geometry" />
        </mxCell>
        <mxCell id="T-bLrGf81Kj2D1WPhR4u-18" value="Project Planning &amp;amp; Setup" style="rounded=0;whiteSpace=wrap;html=1;fontSize=16;" parent="WIyWlLk6GJQsqaUBKTNV-1" vertex="1">
          <mxGeometry x="-5865" y="280" width="200" height="60" as="geometry" />
        </mxCell>
        <mxCell id="T-bLrGf81Kj2D1WPhR4u-59" style="rounded=0;orthogonalLoop=1;jettySize=auto;html=1;edgeStyle=orthogonalEdgeStyle;elbow=vertical;curved=1;fontSize=16;" parent="WIyWlLk6GJQsqaUBKTNV-1" source="T-bLrGf81Kj2D1WPhR4u-20" target="T-bLrGf81Kj2D1WPhR4u-52" edge="1">
          <mxGeometry relative="1" as="geometry" />
        </mxCell>
        <mxCell id="T-bLrGf81Kj2D1WPhR4u-60" style="rounded=0;orthogonalLoop=1;jettySize=auto;html=1;edgeStyle=orthogonalEdgeStyle;elbow=vertical;curved=1;fontSize=16;" parent="WIyWlLk6GJQsqaUBKTNV-1" source="T-bLrGf81Kj2D1WPhR4u-20" target="T-bLrGf81Kj2D1WPhR4u-57" edge="1">
          <mxGeometry relative="1" as="geometry" />
        </mxCell>
        <mxCell id="T-bLrGf81Kj2D1WPhR4u-61" style="rounded=0;orthogonalLoop=1;jettySize=auto;html=1;entryX=0.5;entryY=0;entryDx=0;entryDy=0;edgeStyle=orthogonalEdgeStyle;elbow=vertical;curved=1;fontSize=16;" parent="WIyWlLk6GJQsqaUBKTNV-1" source="T-bLrGf81Kj2D1WPhR4u-20" target="T-bLrGf81Kj2D1WPhR4u-56" edge="1">
          <mxGeometry relative="1" as="geometry" />
        </mxCell>
        <mxCell id="T-bLrGf81Kj2D1WPhR4u-62" style="rounded=0;orthogonalLoop=1;jettySize=auto;html=1;edgeStyle=orthogonalEdgeStyle;elbow=vertical;curved=1;fontSize=16;" parent="WIyWlLk6GJQsqaUBKTNV-1" source="T-bLrGf81Kj2D1WPhR4u-20" target="T-bLrGf81Kj2D1WPhR4u-54" edge="1">
          <mxGeometry relative="1" as="geometry" />
        </mxCell>
        <mxCell id="T-bLrGf81Kj2D1WPhR4u-63" style="rounded=0;orthogonalLoop=1;jettySize=auto;html=1;entryX=0.5;entryY=0;entryDx=0;entryDy=0;edgeStyle=orthogonalEdgeStyle;elbow=vertical;curved=1;fontSize=16;" parent="WIyWlLk6GJQsqaUBKTNV-1" source="T-bLrGf81Kj2D1WPhR4u-20" target="T-bLrGf81Kj2D1WPhR4u-55" edge="1">
          <mxGeometry relative="1" as="geometry" />
        </mxCell>
        <mxCell id="T-bLrGf81Kj2D1WPhR4u-20" value="Database Design &amp;amp; Development" style="rounded=0;whiteSpace=wrap;html=1;fontSize=16;" parent="WIyWlLk6GJQsqaUBKTNV-1" vertex="1">
          <mxGeometry x="-3615" y="280" width="250" height="60" as="geometry" />
        </mxCell>
        <mxCell id="T-bLrGf81Kj2D1WPhR4u-72" style="rounded=0;orthogonalLoop=1;jettySize=auto;html=1;edgeStyle=orthogonalEdgeStyle;elbow=vertical;curved=1;fontSize=16;" parent="WIyWlLk6GJQsqaUBKTNV-1" source="T-bLrGf81Kj2D1WPhR4u-24" target="T-bLrGf81Kj2D1WPhR4u-64" edge="1">
          <mxGeometry relative="1" as="geometry" />
        </mxCell>
        <mxCell id="T-bLrGf81Kj2D1WPhR4u-73" style="rounded=0;orthogonalLoop=1;jettySize=auto;html=1;edgeStyle=orthogonalEdgeStyle;elbow=vertical;curved=1;fontSize=16;" parent="WIyWlLk6GJQsqaUBKTNV-1" source="T-bLrGf81Kj2D1WPhR4u-24" target="T-bLrGf81Kj2D1WPhR4u-65" edge="1">
          <mxGeometry relative="1" as="geometry" />
        </mxCell>
        <mxCell id="T-bLrGf81Kj2D1WPhR4u-74" style="rounded=0;orthogonalLoop=1;jettySize=auto;html=1;entryX=0.5;entryY=0;entryDx=0;entryDy=0;edgeStyle=orthogonalEdgeStyle;elbow=vertical;curved=1;fontSize=16;" parent="WIyWlLk6GJQsqaUBKTNV-1" source="T-bLrGf81Kj2D1WPhR4u-24" target="T-bLrGf81Kj2D1WPhR4u-66" edge="1">
          <mxGeometry relative="1" as="geometry" />
        </mxCell>
        <mxCell id="T-bLrGf81Kj2D1WPhR4u-75" style="rounded=0;orthogonalLoop=1;jettySize=auto;html=1;edgeStyle=orthogonalEdgeStyle;elbow=vertical;curved=1;fontSize=16;" parent="WIyWlLk6GJQsqaUBKTNV-1" source="T-bLrGf81Kj2D1WPhR4u-24" target="T-bLrGf81Kj2D1WPhR4u-68" edge="1">
          <mxGeometry relative="1" as="geometry" />
        </mxCell>
        <mxCell id="T-bLrGf81Kj2D1WPhR4u-76" style="rounded=0;orthogonalLoop=1;jettySize=auto;html=1;entryX=0.5;entryY=0;entryDx=0;entryDy=0;edgeStyle=orthogonalEdgeStyle;elbow=vertical;curved=1;fontSize=16;" parent="WIyWlLk6GJQsqaUBKTNV-1" source="T-bLrGf81Kj2D1WPhR4u-24" target="T-bLrGf81Kj2D1WPhR4u-67" edge="1">
          <mxGeometry relative="1" as="geometry" />
        </mxCell>
        <mxCell id="T-bLrGf81Kj2D1WPhR4u-24" value="Backend Development" style="rounded=0;whiteSpace=wrap;html=1;fontSize=16;" parent="WIyWlLk6GJQsqaUBKTNV-1" vertex="1">
          <mxGeometry x="-1377" y="280" width="180" height="60" as="geometry" />
        </mxCell>
        <mxCell id="y4hbCwQFAGTeEz3mjHwd-20" style="edgeStyle=orthogonalEdgeStyle;rounded=0;orthogonalLoop=1;jettySize=auto;html=1;curved=1;fontSize=16;" parent="WIyWlLk6GJQsqaUBKTNV-1" source="T-bLrGf81Kj2D1WPhR4u-26" target="y4hbCwQFAGTeEz3mjHwd-14" edge="1">
          <mxGeometry relative="1" as="geometry" />
        </mxCell>
        <mxCell id="y4hbCwQFAGTeEz3mjHwd-21" style="edgeStyle=orthogonalEdgeStyle;rounded=0;orthogonalLoop=1;jettySize=auto;html=1;curved=1;fontSize=16;" parent="WIyWlLk6GJQsqaUBKTNV-1" source="T-bLrGf81Kj2D1WPhR4u-26" target="y4hbCwQFAGTeEz3mjHwd-16" edge="1">
          <mxGeometry relative="1" as="geometry" />
        </mxCell>
        <mxCell id="y4hbCwQFAGTeEz3mjHwd-22" style="edgeStyle=orthogonalEdgeStyle;rounded=0;orthogonalLoop=1;jettySize=auto;html=1;curved=1;fontSize=16;entryX=0.5;entryY=0;entryDx=0;entryDy=0;" parent="WIyWlLk6GJQsqaUBKTNV-1" source="T-bLrGf81Kj2D1WPhR4u-26" target="T9TQ2GxorK-crfHRh1-e-61" edge="1">
          <mxGeometry relative="1" as="geometry">
            <mxPoint x="730.1111111111095" y="490" as="targetPoint" />
          </mxGeometry>
        </mxCell>
        <mxCell id="y4hbCwQFAGTeEz3mjHwd-23" style="edgeStyle=orthogonalEdgeStyle;rounded=0;orthogonalLoop=1;jettySize=auto;html=1;curved=1;fontSize=16;" parent="WIyWlLk6GJQsqaUBKTNV-1" source="T-bLrGf81Kj2D1WPhR4u-26" target="y4hbCwQFAGTeEz3mjHwd-19" edge="1">
          <mxGeometry relative="1" as="geometry" />
        </mxCell>
        <mxCell id="T-bLrGf81Kj2D1WPhR4u-26" value="Frontend Development (UI/UX)" style="rounded=0;whiteSpace=wrap;html=1;fontSize=16;" parent="WIyWlLk6GJQsqaUBKTNV-1" vertex="1">
          <mxGeometry x="470" y="280" width="230" height="60" as="geometry" />
        </mxCell>
        <mxCell id="y4hbCwQFAGTeEz3mjHwd-54" style="edgeStyle=orthogonalEdgeStyle;rounded=0;orthogonalLoop=1;jettySize=auto;html=1;curved=1;fontSize=16;" parent="WIyWlLk6GJQsqaUBKTNV-1" source="T-bLrGf81Kj2D1WPhR4u-27" target="y4hbCwQFAGTeEz3mjHwd-49" edge="1">
          <mxGeometry relative="1" as="geometry" />
        </mxCell>
        <mxCell id="y4hbCwQFAGTeEz3mjHwd-55" style="edgeStyle=orthogonalEdgeStyle;rounded=0;orthogonalLoop=1;jettySize=auto;html=1;curved=1;fontSize=16;" parent="WIyWlLk6GJQsqaUBKTNV-1" source="T-bLrGf81Kj2D1WPhR4u-27" target="y4hbCwQFAGTeEz3mjHwd-50" edge="1">
          <mxGeometry relative="1" as="geometry" />
        </mxCell>
        <mxCell id="y4hbCwQFAGTeEz3mjHwd-56" style="edgeStyle=orthogonalEdgeStyle;rounded=0;orthogonalLoop=1;jettySize=auto;html=1;curved=1;fontSize=16;" parent="WIyWlLk6GJQsqaUBKTNV-1" source="T-bLrGf81Kj2D1WPhR4u-27" target="y4hbCwQFAGTeEz3mjHwd-51" edge="1">
          <mxGeometry relative="1" as="geometry" />
        </mxCell>
        <mxCell id="T-bLrGf81Kj2D1WPhR4u-27" value="Testing &amp;amp; Debugging" style="rounded=0;whiteSpace=wrap;html=1;fontSize=16;" parent="WIyWlLk6GJQsqaUBKTNV-1" vertex="1">
          <mxGeometry x="2680" y="300" width="180" height="60" as="geometry" />
        </mxCell>
        <mxCell id="y4hbCwQFAGTeEz3mjHwd-63" style="edgeStyle=orthogonalEdgeStyle;curved=1;rounded=0;orthogonalLoop=1;jettySize=auto;html=1;fontSize=16;" parent="WIyWlLk6GJQsqaUBKTNV-1" source="T-bLrGf81Kj2D1WPhR4u-28" target="y4hbCwQFAGTeEz3mjHwd-59" edge="1">
          <mxGeometry relative="1" as="geometry" />
        </mxCell>
        <mxCell id="y4hbCwQFAGTeEz3mjHwd-64" style="edgeStyle=orthogonalEdgeStyle;curved=1;rounded=0;orthogonalLoop=1;jettySize=auto;html=1;fontSize=16;" parent="WIyWlLk6GJQsqaUBKTNV-1" source="T-bLrGf81Kj2D1WPhR4u-28" target="y4hbCwQFAGTeEz3mjHwd-61" edge="1">
          <mxGeometry relative="1" as="geometry" />
        </mxCell>
        <mxCell id="y4hbCwQFAGTeEz3mjHwd-65" style="edgeStyle=orthogonalEdgeStyle;curved=1;rounded=0;orthogonalLoop=1;jettySize=auto;html=1;fontSize=16;" parent="WIyWlLk6GJQsqaUBKTNV-1" source="T-bLrGf81Kj2D1WPhR4u-28" target="y4hbCwQFAGTeEz3mjHwd-60" edge="1">
          <mxGeometry relative="1" as="geometry" />
        </mxCell>
        <mxCell id="y4hbCwQFAGTeEz3mjHwd-66" style="edgeStyle=orthogonalEdgeStyle;curved=1;rounded=0;orthogonalLoop=1;jettySize=auto;html=1;fontSize=16;" parent="WIyWlLk6GJQsqaUBKTNV-1" source="T-bLrGf81Kj2D1WPhR4u-28" target="y4hbCwQFAGTeEz3mjHwd-62" edge="1">
          <mxGeometry relative="1" as="geometry" />
        </mxCell>
        <mxCell id="T-bLrGf81Kj2D1WPhR4u-28" value="Deployment &amp;amp; Documentation" style="rounded=0;whiteSpace=wrap;html=1;fontSize=16;" parent="WIyWlLk6GJQsqaUBKTNV-1" vertex="1">
          <mxGeometry x="4080" y="300" width="220" height="60" as="geometry" />
        </mxCell>
        <mxCell id="y4hbCwQFAGTeEz3mjHwd-73" style="edgeStyle=orthogonalEdgeStyle;curved=1;rounded=0;orthogonalLoop=1;jettySize=auto;html=1;fontSize=16;" parent="WIyWlLk6GJQsqaUBKTNV-1" source="T-bLrGf81Kj2D1WPhR4u-29" target="y4hbCwQFAGTeEz3mjHwd-70" edge="1">
          <mxGeometry relative="1" as="geometry">
            <Array as="points">
              <mxPoint x="6020" y="510" />
              <mxPoint x="6020" y="510" />
            </Array>
          </mxGeometry>
        </mxCell>
        <mxCell id="y4hbCwQFAGTeEz3mjHwd-74" style="edgeStyle=orthogonalEdgeStyle;curved=1;rounded=0;orthogonalLoop=1;jettySize=auto;html=1;entryX=0.5;entryY=0;entryDx=0;entryDy=0;fontSize=16;" parent="WIyWlLk6GJQsqaUBKTNV-1" source="T-bLrGf81Kj2D1WPhR4u-29" target="y4hbCwQFAGTeEz3mjHwd-71" edge="1">
          <mxGeometry relative="1" as="geometry" />
        </mxCell>
        <mxCell id="y4hbCwQFAGTeEz3mjHwd-75" style="edgeStyle=orthogonalEdgeStyle;curved=1;rounded=0;orthogonalLoop=1;jettySize=auto;html=1;entryX=0.25;entryY=0;entryDx=0;entryDy=0;fontSize=16;" parent="WIyWlLk6GJQsqaUBKTNV-1" source="T-bLrGf81Kj2D1WPhR4u-29" target="y4hbCwQFAGTeEz3mjHwd-69" edge="1">
          <mxGeometry relative="1" as="geometry" />
        </mxCell>
        <mxCell id="T-bLrGf81Kj2D1WPhR4u-29" value="Maintenance &amp;amp; Support" style="rounded=0;whiteSpace=wrap;html=1;fontSize=16;" parent="WIyWlLk6GJQsqaUBKTNV-1" vertex="1">
          <mxGeometry x="5900" y="310" width="190" height="60" as="geometry" />
        </mxCell>
        <mxCell id="T-bLrGf81Kj2D1WPhR4u-37" value="Level 1: Main Project" style="text;html=1;align=center;verticalAlign=middle;resizable=0;points=[];autosize=1;strokeColor=none;fillColor=none;fontSize=16;" parent="WIyWlLk6GJQsqaUBKTNV-1" vertex="1">
          <mxGeometry x="210" y="90" width="170" height="30" as="geometry" />
        </mxCell>
        <mxCell id="T-bLrGf81Kj2D1WPhR4u-39" value="Level 2: Major Work Packages" style="text;html=1;align=center;verticalAlign=middle;resizable=0;points=[];autosize=1;strokeColor=none;fillColor=none;fontSize=16;" parent="WIyWlLk6GJQsqaUBKTNV-1" vertex="1">
          <mxGeometry x="-6148" y="295" width="240" height="30" as="geometry" />
        </mxCell>
        <mxCell id="y4hbCwQFAGTeEz3mjHwd-100" style="edgeStyle=orthogonalEdgeStyle;curved=1;rounded=0;orthogonalLoop=1;jettySize=auto;html=1;fontSize=16;" parent="WIyWlLk6GJQsqaUBKTNV-1" source="T-bLrGf81Kj2D1WPhR4u-41" target="y4hbCwQFAGTeEz3mjHwd-98" edge="1">
          <mxGeometry relative="1" as="geometry" />
        </mxCell>
        <mxCell id="y4hbCwQFAGTeEz3mjHwd-101" style="edgeStyle=orthogonalEdgeStyle;curved=1;rounded=0;orthogonalLoop=1;jettySize=auto;html=1;fontSize=16;" parent="WIyWlLk6GJQsqaUBKTNV-1" source="T-bLrGf81Kj2D1WPhR4u-41" target="y4hbCwQFAGTeEz3mjHwd-97" edge="1">
          <mxGeometry relative="1" as="geometry" />
        </mxCell>
        <mxCell id="y4hbCwQFAGTeEz3mjHwd-102" style="edgeStyle=orthogonalEdgeStyle;curved=1;rounded=0;orthogonalLoop=1;jettySize=auto;html=1;fontSize=16;" parent="WIyWlLk6GJQsqaUBKTNV-1" source="T-bLrGf81Kj2D1WPhR4u-41" target="y4hbCwQFAGTeEz3mjHwd-91" edge="1">
          <mxGeometry relative="1" as="geometry" />
        </mxCell>
        <mxCell id="y4hbCwQFAGTeEz3mjHwd-103" style="edgeStyle=orthogonalEdgeStyle;curved=1;rounded=0;orthogonalLoop=1;jettySize=auto;html=1;fontSize=16;" parent="WIyWlLk6GJQsqaUBKTNV-1" source="T-bLrGf81Kj2D1WPhR4u-41" target="y4hbCwQFAGTeEz3mjHwd-94" edge="1">
          <mxGeometry relative="1" as="geometry" />
        </mxCell>
        <mxCell id="y4hbCwQFAGTeEz3mjHwd-104" style="edgeStyle=orthogonalEdgeStyle;curved=1;rounded=0;orthogonalLoop=1;jettySize=auto;html=1;fontSize=16;" parent="WIyWlLk6GJQsqaUBKTNV-1" source="T-bLrGf81Kj2D1WPhR4u-41" target="y4hbCwQFAGTeEz3mjHwd-95" edge="1">
          <mxGeometry relative="1" as="geometry" />
        </mxCell>
        <mxCell id="y4hbCwQFAGTeEz3mjHwd-105" style="edgeStyle=orthogonalEdgeStyle;curved=1;rounded=0;orthogonalLoop=1;jettySize=auto;html=1;fontSize=16;" parent="WIyWlLk6GJQsqaUBKTNV-1" source="T-bLrGf81Kj2D1WPhR4u-41" target="y4hbCwQFAGTeEz3mjHwd-93" edge="1">
          <mxGeometry relative="1" as="geometry" />
        </mxCell>
        <mxCell id="y4hbCwQFAGTeEz3mjHwd-107" style="edgeStyle=orthogonalEdgeStyle;curved=1;rounded=0;orthogonalLoop=1;jettySize=auto;html=1;fontSize=16;" parent="WIyWlLk6GJQsqaUBKTNV-1" source="T-bLrGf81Kj2D1WPhR4u-41" target="y4hbCwQFAGTeEz3mjHwd-96" edge="1">
          <mxGeometry relative="1" as="geometry" />
        </mxCell>
        <mxCell id="y4hbCwQFAGTeEz3mjHwd-108" style="edgeStyle=orthogonalEdgeStyle;curved=1;rounded=0;orthogonalLoop=1;jettySize=auto;html=1;fontSize=16;" parent="WIyWlLk6GJQsqaUBKTNV-1" source="T-bLrGf81Kj2D1WPhR4u-41" target="y4hbCwQFAGTeEz3mjHwd-92" edge="1">
          <mxGeometry relative="1" as="geometry" />
        </mxCell>
        <mxCell id="y4hbCwQFAGTeEz3mjHwd-109" style="edgeStyle=orthogonalEdgeStyle;curved=1;rounded=0;orthogonalLoop=1;jettySize=auto;html=1;fontSize=16;" parent="WIyWlLk6GJQsqaUBKTNV-1" source="T-bLrGf81Kj2D1WPhR4u-41" target="y4hbCwQFAGTeEz3mjHwd-90" edge="1">
          <mxGeometry relative="1" as="geometry" />
        </mxCell>
        <mxCell id="T-bLrGf81Kj2D1WPhR4u-41" value="&lt;font&gt;Requirement Analysis&lt;/font&gt;" style="rounded=0;whiteSpace=wrap;html=1;fontSize=16;" parent="WIyWlLk6GJQsqaUBKTNV-1" vertex="1">
          <mxGeometry x="-7780" y="500" width="180" height="60" as="geometry" />
        </mxCell>
        <mxCell id="y4hbCwQFAGTeEz3mjHwd-115" style="edgeStyle=orthogonalEdgeStyle;curved=1;rounded=0;orthogonalLoop=1;jettySize=auto;html=1;entryX=0.5;entryY=0;entryDx=0;entryDy=0;fontSize=16;" parent="WIyWlLk6GJQsqaUBKTNV-1" source="T-bLrGf81Kj2D1WPhR4u-42" target="y4hbCwQFAGTeEz3mjHwd-111" edge="1">
          <mxGeometry relative="1" as="geometry" />
        </mxCell>
        <mxCell id="y4hbCwQFAGTeEz3mjHwd-117" style="edgeStyle=orthogonalEdgeStyle;curved=1;rounded=0;orthogonalLoop=1;jettySize=auto;html=1;entryX=0.75;entryY=0;entryDx=0;entryDy=0;fontSize=16;" parent="WIyWlLk6GJQsqaUBKTNV-1" source="T-bLrGf81Kj2D1WPhR4u-42" target="y4hbCwQFAGTeEz3mjHwd-110" edge="1">
          <mxGeometry relative="1" as="geometry" />
        </mxCell>
        <mxCell id="T-bLrGf81Kj2D1WPhR4u-42" value="&lt;font&gt;Define Scope &amp;amp; Objectives&lt;/font&gt;" style="rounded=0;whiteSpace=wrap;html=1;fontSize=16;" parent="WIyWlLk6GJQsqaUBKTNV-1" vertex="1">
          <mxGeometry x="-6790" y="510" width="230" height="60" as="geometry" />
        </mxCell>
        <mxCell id="y4hbCwQFAGTeEz3mjHwd-82" style="edgeStyle=orthogonalEdgeStyle;curved=1;rounded=0;orthogonalLoop=1;jettySize=auto;html=1;entryX=0.75;entryY=0;entryDx=0;entryDy=0;exitX=0.5;exitY=1;exitDx=0;exitDy=0;fontSize=16;" parent="WIyWlLk6GJQsqaUBKTNV-1" source="T-bLrGf81Kj2D1WPhR4u-43" target="y4hbCwQFAGTeEz3mjHwd-79" edge="1">
          <mxGeometry relative="1" as="geometry" />
        </mxCell>
        <mxCell id="y4hbCwQFAGTeEz3mjHwd-83" style="edgeStyle=orthogonalEdgeStyle;curved=1;rounded=0;orthogonalLoop=1;jettySize=auto;html=1;entryX=0.5;entryY=0;entryDx=0;entryDy=0;fontSize=16;" parent="WIyWlLk6GJQsqaUBKTNV-1" source="T-bLrGf81Kj2D1WPhR4u-43" target="y4hbCwQFAGTeEz3mjHwd-77" edge="1">
          <mxGeometry relative="1" as="geometry" />
        </mxCell>
        <mxCell id="y4hbCwQFAGTeEz3mjHwd-84" style="edgeStyle=orthogonalEdgeStyle;curved=1;rounded=0;orthogonalLoop=1;jettySize=auto;html=1;fontSize=16;" parent="WIyWlLk6GJQsqaUBKTNV-1" source="T-bLrGf81Kj2D1WPhR4u-43" target="y4hbCwQFAGTeEz3mjHwd-78" edge="1">
          <mxGeometry relative="1" as="geometry" />
        </mxCell>
        <mxCell id="y4hbCwQFAGTeEz3mjHwd-87" style="edgeStyle=orthogonalEdgeStyle;curved=1;rounded=0;orthogonalLoop=1;jettySize=auto;html=1;entryX=0.25;entryY=0;entryDx=0;entryDy=0;exitX=0.5;exitY=1;exitDx=0;exitDy=0;fontSize=16;" parent="WIyWlLk6GJQsqaUBKTNV-1" source="T-bLrGf81Kj2D1WPhR4u-43" target="y4hbCwQFAGTeEz3mjHwd-80" edge="1">
          <mxGeometry relative="1" as="geometry" />
        </mxCell>
        <mxCell id="T-bLrGf81Kj2D1WPhR4u-43" value="&lt;font&gt;Choose Technology Stack&lt;/font&gt;" style="rounded=0;whiteSpace=wrap;html=1;fontSize=16;" parent="WIyWlLk6GJQsqaUBKTNV-1" vertex="1">
          <mxGeometry x="-5920" y="500" width="230" height="60" as="geometry" />
        </mxCell>
        <mxCell id="y4hbCwQFAGTeEz3mjHwd-86" style="edgeStyle=orthogonalEdgeStyle;curved=1;rounded=0;orthogonalLoop=1;jettySize=auto;html=1;exitX=0.5;exitY=1;exitDx=0;exitDy=0;fontSize=16;" parent="WIyWlLk6GJQsqaUBKTNV-1" source="T-bLrGf81Kj2D1WPhR4u-44" target="y4hbCwQFAGTeEz3mjHwd-81" edge="1">
          <mxGeometry relative="1" as="geometry" />
        </mxCell>
        <mxCell id="T-bLrGf81Kj2D1WPhR4u-44" value="&lt;font&gt;Set Up Project Repository (Git)&lt;/font&gt;" style="rounded=0;whiteSpace=wrap;html=1;fontSize=16;" parent="WIyWlLk6GJQsqaUBKTNV-1" vertex="1">
          <mxGeometry x="-5570" y="500" width="260" height="60" as="geometry" />
        </mxCell>
        <mxCell id="y4hbCwQFAGTeEz3mjHwd-129" style="edgeStyle=orthogonalEdgeStyle;curved=1;rounded=0;orthogonalLoop=1;jettySize=auto;html=1;entryX=0.25;entryY=0;entryDx=0;entryDy=0;fontSize=16;exitX=0.5;exitY=1;exitDx=0;exitDy=0;" parent="WIyWlLk6GJQsqaUBKTNV-1" source="T-bLrGf81Kj2D1WPhR4u-45" target="y4hbCwQFAGTeEz3mjHwd-122" edge="1">
          <mxGeometry relative="1" as="geometry">
            <Array as="points">
              <mxPoint x="-4635" y="780" />
              <mxPoint x="-4932" y="780" />
            </Array>
          </mxGeometry>
        </mxCell>
        <mxCell id="y4hbCwQFAGTeEz3mjHwd-132" style="edgeStyle=orthogonalEdgeStyle;curved=1;rounded=0;orthogonalLoop=1;jettySize=auto;html=1;fontSize=16;" parent="WIyWlLk6GJQsqaUBKTNV-1" source="T-bLrGf81Kj2D1WPhR4u-45" target="y4hbCwQFAGTeEz3mjHwd-121" edge="1">
          <mxGeometry relative="1" as="geometry" />
        </mxCell>
        <mxCell id="y4hbCwQFAGTeEz3mjHwd-133" style="edgeStyle=orthogonalEdgeStyle;curved=1;rounded=0;orthogonalLoop=1;jettySize=auto;html=1;entryX=0.454;entryY=-0.011;entryDx=0;entryDy=0;fontSize=16;entryPerimeter=0;exitX=0.5;exitY=1;exitDx=0;exitDy=0;" parent="WIyWlLk6GJQsqaUBKTNV-1" source="T-bLrGf81Kj2D1WPhR4u-45" target="y4hbCwQFAGTeEz3mjHwd-118" edge="1">
          <mxGeometry relative="1" as="geometry" />
        </mxCell>
        <mxCell id="T9TQ2GxorK-crfHRh1-e-13" style="edgeStyle=orthogonalEdgeStyle;curved=1;rounded=0;orthogonalLoop=1;jettySize=auto;html=1;entryX=0.5;entryY=0;entryDx=0;entryDy=0;fontSize=16;" parent="WIyWlLk6GJQsqaUBKTNV-1" source="T-bLrGf81Kj2D1WPhR4u-45" target="y4hbCwQFAGTeEz3mjHwd-119" edge="1">
          <mxGeometry relative="1" as="geometry" />
        </mxCell>
        <mxCell id="T9TQ2GxorK-crfHRh1-e-75" style="edgeStyle=orthogonalEdgeStyle;curved=1;rounded=0;orthogonalLoop=1;jettySize=auto;html=1;fontSize=16;" parent="WIyWlLk6GJQsqaUBKTNV-1" source="T-bLrGf81Kj2D1WPhR4u-45" target="y4hbCwQFAGTeEz3mjHwd-120" edge="1">
          <mxGeometry relative="1" as="geometry" />
        </mxCell>
        <mxCell id="T-bLrGf81Kj2D1WPhR4u-45" value="&lt;font&gt;Design System Architecture&lt;/font&gt;" style="rounded=0;whiteSpace=wrap;html=1;fontSize=16;" parent="WIyWlLk6GJQsqaUBKTNV-1" vertex="1">
          <mxGeometry x="-4750" y="500" width="230" height="60" as="geometry" />
        </mxCell>
        <mxCell id="T-bLrGf81Kj2D1WPhR4u-52" value="Define Entity-Relationship Diagram (ERD)" style="rounded=0;whiteSpace=wrap;html=1;fontSize=16;" parent="WIyWlLk6GJQsqaUBKTNV-1" vertex="1">
          <mxGeometry x="-4180" y="500" width="250" height="60" as="geometry" />
        </mxCell>
        <mxCell id="T-bLrGf81Kj2D1WPhR4u-54" value="Database Testing &amp;amp; Optimization" style="rounded=0;whiteSpace=wrap;html=1;fontSize=16;" parent="WIyWlLk6GJQsqaUBKTNV-1" vertex="1">
          <mxGeometry x="-3070" y="500" width="210" height="60" as="geometry" />
        </mxCell>
        <mxCell id="T-bLrGf81Kj2D1WPhR4u-55" value="Implement Stored Procedures &amp;amp; Triggers" style="rounded=0;whiteSpace=wrap;html=1;fontSize=16;" parent="WIyWlLk6GJQsqaUBKTNV-1" vertex="1">
          <mxGeometry x="-3335" y="500" width="240" height="60" as="geometry" />
        </mxCell>
        <mxCell id="T-bLrGf81Kj2D1WPhR4u-56" value="Write SQL Queries for CRUD Operations" style="rounded=0;whiteSpace=wrap;html=1;fontSize=16;" parent="WIyWlLk6GJQsqaUBKTNV-1" vertex="1">
          <mxGeometry x="-3610" y="500" width="240" height="60" as="geometry" />
        </mxCell>
        <mxCell id="T-bLrGf81Kj2D1WPhR4u-57" value="Create Database Schema in SQL Server" style="rounded=0;whiteSpace=wrap;html=1;fontSize=16;" parent="WIyWlLk6GJQsqaUBKTNV-1" vertex="1">
          <mxGeometry x="-3890" y="500" width="240" height="60" as="geometry" />
        </mxCell>
        <mxCell id="T-bLrGf81Kj2D1WPhR4u-64" value="Set Up .NET Framework Project Structure" style="rounded=0;whiteSpace=wrap;html=1;fontSize=16;" parent="WIyWlLk6GJQsqaUBKTNV-1" vertex="1">
          <mxGeometry x="-2170" y="500" width="260" height="60" as="geometry" />
        </mxCell>
        <mxCell id="T-bLrGf81Kj2D1WPhR4u-65" value="Implement ADO.NET for Database Connectivity" style="rounded=0;whiteSpace=wrap;html=1;fontSize=16;" parent="WIyWlLk6GJQsqaUBKTNV-1" vertex="1">
          <mxGeometry x="-1873" y="500" width="280" height="60" as="geometry" />
        </mxCell>
        <mxCell id="T-bLrGf81Kj2D1WPhR4u-66" value="Develop Authentication &amp;amp; Authorization (Login, Roles)" style="rounded=0;whiteSpace=wrap;html=1;fontSize=16;" parent="WIyWlLk6GJQsqaUBKTNV-1" vertex="1">
          <mxGeometry x="-1560" y="500" width="300" height="60" as="geometry" />
        </mxCell>
        <mxCell id="T-bLrGf81Kj2D1WPhR4u-68" value="Implement Business Logic" style="rounded=0;whiteSpace=wrap;html=1;fontSize=16;" parent="WIyWlLk6GJQsqaUBKTNV-1" vertex="1">
          <mxGeometry x="-1100" y="490" width="210" height="60" as="geometry" />
        </mxCell>
        <mxCell id="T-bLrGf81Kj2D1WPhR4u-69" value="Level 2: Major Work Packages" style="text;html=1;align=center;verticalAlign=middle;resizable=0;points=[];autosize=1;strokeColor=none;fillColor=none;fontSize=16;" parent="WIyWlLk6GJQsqaUBKTNV-1" vertex="1">
          <mxGeometry x="-3955" y="295" width="240" height="30" as="geometry" />
        </mxCell>
        <mxCell id="T-bLrGf81Kj2D1WPhR4u-70" value="Level 3: Work Components Under Each Work Package" style="text;html=1;align=center;verticalAlign=middle;resizable=0;points=[];autosize=1;strokeColor=none;fillColor=none;fontSize=16;" parent="WIyWlLk6GJQsqaUBKTNV-1" vertex="1">
          <mxGeometry x="-4550" y="445" width="410" height="30" as="geometry" />
        </mxCell>
        <mxCell id="T-bLrGf81Kj2D1WPhR4u-79" value="Level 2: Major Work Packages" style="text;html=1;align=center;verticalAlign=middle;resizable=0;points=[];autosize=1;strokeColor=none;fillColor=none;fontSize=16;" parent="WIyWlLk6GJQsqaUBKTNV-1" vertex="1">
          <mxGeometry x="-1685" y="295" width="240" height="30" as="geometry" />
        </mxCell>
        <mxCell id="T-bLrGf81Kj2D1WPhR4u-80" value="Level 3: Work Components Under Each Work Package" style="text;html=1;align=center;verticalAlign=middle;resizable=0;points=[];autosize=1;strokeColor=none;fillColor=none;fontSize=16;" parent="WIyWlLk6GJQsqaUBKTNV-1" vertex="1">
          <mxGeometry x="-2690" y="515" width="410" height="30" as="geometry" />
        </mxCell>
        <mxCell id="T-bLrGf81Kj2D1WPhR4u-67" value="Integrate Logging &amp;amp; Exception Handling" style="rounded=0;whiteSpace=wrap;html=1;fontSize=16;" parent="WIyWlLk6GJQsqaUBKTNV-1" vertex="1">
          <mxGeometry x="-663" y="490" width="250" height="60" as="geometry" />
        </mxCell>
        <mxCell id="y4hbCwQFAGTeEz3mjHwd-12" value="Level 4: Activity" style="text;html=1;align=center;verticalAlign=middle;resizable=0;points=[];autosize=1;strokeColor=none;fillColor=none;fontSize=16;" parent="WIyWlLk6GJQsqaUBKTNV-1" vertex="1">
          <mxGeometry x="-1755" y="1015" width="130" height="30" as="geometry" />
        </mxCell>
        <mxCell id="y4hbCwQFAGTeEz3mjHwd-14" value="Design UI Mockups (Forms, Layouts)" style="rounded=0;whiteSpace=wrap;html=1;fontSize=16;" parent="WIyWlLk6GJQsqaUBKTNV-1" vertex="1">
          <mxGeometry x="-250" y="490" width="250" height="60" as="geometry" />
        </mxCell>
        <mxCell id="y4hbCwQFAGTeEz3mjHwd-15" value="Level 3: Work Components Under Each Work Package" style="text;html=1;align=center;verticalAlign=middle;resizable=0;points=[];autosize=1;strokeColor=none;fillColor=none;fontSize=16;" parent="WIyWlLk6GJQsqaUBKTNV-1" vertex="1">
          <mxGeometry x="1540" y="515" width="410" height="30" as="geometry" />
        </mxCell>
        <mxCell id="y4hbCwQFAGTeEz3mjHwd-16" value="Implement Login &amp;amp; User Role-Based Access" style="rounded=0;whiteSpace=wrap;html=1;fontSize=16;" parent="WIyWlLk6GJQsqaUBKTNV-1" vertex="1">
          <mxGeometry x="110" y="495" width="250" height="60" as="geometry" />
        </mxCell>
        <mxCell id="y4hbCwQFAGTeEz3mjHwd-19" value="Implement Data Validation &amp;amp; User Input Handling" style="rounded=0;whiteSpace=wrap;html=1;fontSize=16;" parent="WIyWlLk6GJQsqaUBKTNV-1" vertex="1">
          <mxGeometry x="1096" y="500" width="290" height="60" as="geometry" />
        </mxCell>
        <mxCell id="y4hbCwQFAGTeEz3mjHwd-46" value="Level 4: Activity" style="text;html=1;align=center;verticalAlign=middle;resizable=0;points=[];autosize=1;strokeColor=none;fillColor=none;fontSize=16;" parent="WIyWlLk6GJQsqaUBKTNV-1" vertex="1">
          <mxGeometry x="-35" y="1015" width="130" height="30" as="geometry" />
        </mxCell>
        <mxCell id="y4hbCwQFAGTeEz3mjHwd-47" value="Level 2: Major Work Packages" style="text;html=1;align=center;verticalAlign=middle;resizable=0;points=[];autosize=1;strokeColor=none;fillColor=none;fontSize=16;" parent="WIyWlLk6GJQsqaUBKTNV-1" vertex="1">
          <mxGeometry x="-225" y="305" width="240" height="30" as="geometry" />
        </mxCell>
        <mxCell id="y4hbCwQFAGTeEz3mjHwd-48" value="Level 2: Major Work Packages" style="text;html=1;align=center;verticalAlign=middle;resizable=0;points=[];autosize=1;strokeColor=none;fillColor=none;fontSize=16;" parent="WIyWlLk6GJQsqaUBKTNV-1" vertex="1">
          <mxGeometry x="1948" y="315" width="240" height="30" as="geometry" />
        </mxCell>
        <mxCell id="y4hbCwQFAGTeEz3mjHwd-49" value="Unit Testing for Backend Services" style="rounded=0;whiteSpace=wrap;html=1;fontSize=16;" parent="WIyWlLk6GJQsqaUBKTNV-1" vertex="1">
          <mxGeometry x="2110" y="510" width="260" height="60" as="geometry" />
        </mxCell>
        <mxCell id="y4hbCwQFAGTeEz3mjHwd-50" value="Integration Testing for Database &amp;amp; Business Logic" style="rounded=0;whiteSpace=wrap;html=1;fontSize=16;" parent="WIyWlLk6GJQsqaUBKTNV-1" vertex="1">
          <mxGeometry x="2400" y="510" width="390" height="60" as="geometry" />
        </mxCell>
        <mxCell id="y4hbCwQFAGTeEz3mjHwd-51" value="UI Testing for User Interactions" style="rounded=0;whiteSpace=wrap;html=1;fontSize=16;" parent="WIyWlLk6GJQsqaUBKTNV-1" vertex="1">
          <mxGeometry x="2820" y="510" width="290" height="60" as="geometry" />
        </mxCell>
        <mxCell id="y4hbCwQFAGTeEz3mjHwd-52" value="Bug Fixing &amp;amp; Performance Optimization" style="rounded=0;whiteSpace=wrap;html=1;fontSize=16;" parent="WIyWlLk6GJQsqaUBKTNV-1" vertex="1">
          <mxGeometry x="3150" y="510" width="310" height="60" as="geometry" />
        </mxCell>
        <mxCell id="y4hbCwQFAGTeEz3mjHwd-57" style="edgeStyle=orthogonalEdgeStyle;rounded=0;orthogonalLoop=1;jettySize=auto;html=1;entryX=0.443;entryY=0.1;entryDx=0;entryDy=0;entryPerimeter=0;exitX=1;exitY=0.5;exitDx=0;exitDy=0;curved=1;fontSize=16;" parent="WIyWlLk6GJQsqaUBKTNV-1" source="T-bLrGf81Kj2D1WPhR4u-27" edge="1">
          <mxGeometry relative="1" as="geometry">
            <mxPoint x="2880" y="330" as="sourcePoint" />
            <mxPoint x="3327.33" y="516" as="targetPoint" />
          </mxGeometry>
        </mxCell>
        <mxCell id="y4hbCwQFAGTeEz3mjHwd-58" value="Level 2: Major Work Packages" style="text;html=1;align=center;verticalAlign=middle;resizable=0;points=[];autosize=1;strokeColor=none;fillColor=none;fontSize=16;" parent="WIyWlLk6GJQsqaUBKTNV-1" vertex="1">
          <mxGeometry x="3585" y="305" width="240" height="30" as="geometry" />
        </mxCell>
        <mxCell id="y4hbCwQFAGTeEz3mjHwd-59" value="Prepare Deployment Plan" style="rounded=0;whiteSpace=wrap;html=1;fontSize=16;" parent="WIyWlLk6GJQsqaUBKTNV-1" vertex="1">
          <mxGeometry x="3612" y="510" width="220" height="60" as="geometry" />
        </mxCell>
        <mxCell id="y4hbCwQFAGTeEz3mjHwd-60" value="Write User Manual &amp;amp; Technical Documentation" style="rounded=0;whiteSpace=wrap;html=1;fontSize=16;" parent="WIyWlLk6GJQsqaUBKTNV-1" vertex="1">
          <mxGeometry x="4210" y="510" width="330" height="60" as="geometry" />
        </mxCell>
        <mxCell id="y4hbCwQFAGTeEz3mjHwd-61" value="Package &amp;amp; Deploy Application (Installer)" style="rounded=0;whiteSpace=wrap;html=1;fontSize=16;" parent="WIyWlLk6GJQsqaUBKTNV-1" vertex="1">
          <mxGeometry x="3860" y="510" width="320" height="60" as="geometry" />
        </mxCell>
        <mxCell id="y4hbCwQFAGTeEz3mjHwd-62" value="Conduct User Training (If Required)" style="rounded=0;whiteSpace=wrap;html=1;fontSize=16;" parent="WIyWlLk6GJQsqaUBKTNV-1" vertex="1">
          <mxGeometry x="4570" y="510" width="288" height="60" as="geometry" />
        </mxCell>
        <mxCell id="y4hbCwQFAGTeEz3mjHwd-68" value="Level 3: Work Components Under Each Work Package" style="text;html=1;align=center;verticalAlign=middle;resizable=0;points=[];autosize=1;strokeColor=none;fillColor=none;fontSize=16;" parent="WIyWlLk6GJQsqaUBKTNV-1" vertex="1">
          <mxGeometry x="4980" y="525" width="410" height="30" as="geometry" />
        </mxCell>
        <mxCell id="y4hbCwQFAGTeEz3mjHwd-69" value="Monitor System Performance" style="rounded=0;whiteSpace=wrap;html=1;fontSize=16;" parent="WIyWlLk6GJQsqaUBKTNV-1" vertex="1">
          <mxGeometry x="5590" y="500" width="230" height="60" as="geometry" />
        </mxCell>
        <mxCell id="y4hbCwQFAGTeEz3mjHwd-70" value="Fix Bugs &amp;amp; Release Updates" style="rounded=0;whiteSpace=wrap;html=1;fontSize=16;" parent="WIyWlLk6GJQsqaUBKTNV-1" vertex="1">
          <mxGeometry x="5900" y="500" width="240" height="60" as="geometry" />
        </mxCell>
        <mxCell id="y4hbCwQFAGTeEz3mjHwd-71" value="Add New Features Based on Feedback" style="rounded=0;whiteSpace=wrap;html=1;fontSize=16;" parent="WIyWlLk6GJQsqaUBKTNV-1" vertex="1">
          <mxGeometry x="6203" y="500" width="290" height="60" as="geometry" />
        </mxCell>
        <mxCell id="y4hbCwQFAGTeEz3mjHwd-76" value="Level 2: Major Work Packages" style="text;html=1;align=center;verticalAlign=middle;resizable=0;points=[];autosize=1;strokeColor=none;fillColor=none;fontSize=16;" parent="WIyWlLk6GJQsqaUBKTNV-1" vertex="1">
          <mxGeometry x="5401" y="335" width="240" height="30" as="geometry" />
        </mxCell>
        <mxCell id="y4hbCwQFAGTeEz3mjHwd-77" value="&lt;strong data-end=&quot;1070&quot; data-start=&quot;1058&quot;&gt;Database&lt;/strong&gt; (SQL Server)" style="rounded=0;whiteSpace=wrap;html=1;fontSize=16;" parent="WIyWlLk6GJQsqaUBKTNV-1" vertex="1">
          <mxGeometry x="-6050" y="1050" width="230" height="60" as="geometry" />
        </mxCell>
        <mxCell id="y4hbCwQFAGTeEz3mjHwd-78" value="&lt;strong data-end=&quot;1111&quot; data-start=&quot;1095&quot;&gt;Architecture&lt;/strong&gt; (3-Tier: Presentation, Business Logic, Data Access)" style="rounded=0;whiteSpace=wrap;html=1;fontSize=16;" parent="WIyWlLk6GJQsqaUBKTNV-1" vertex="1">
          <mxGeometry x="-5800" y="1050" width="230" height="60" as="geometry" />
        </mxCell>
        <mxCell id="y4hbCwQFAGTeEz3mjHwd-79" value="&lt;strong data-end=&quot;1021&quot; data-start=&quot;997&quot;&gt;Programming Language&lt;/strong&gt; (C# with .NET Framework)" style="rounded=0;whiteSpace=wrap;html=1;fontSize=16;" parent="WIyWlLk6GJQsqaUBKTNV-1" vertex="1">
          <mxGeometry x="-6290" y="1050" width="230" height="60" as="geometry" />
        </mxCell>
        <mxCell id="y4hbCwQFAGTeEz3mjHwd-80" value="&lt;strong data-end=&quot;1198&quot; data-start=&quot;1177&quot;&gt;Development Tools&lt;/strong&gt; (Visual Studio, SSMS, Postman for API testing)" style="rounded=0;whiteSpace=wrap;html=1;fontSize=16;" parent="WIyWlLk6GJQsqaUBKTNV-1" vertex="1">
          <mxGeometry x="-5560" y="1050" width="230" height="60" as="geometry" />
        </mxCell>
        <mxCell id="y4hbCwQFAGTeEz3mjHwd-81" value="&lt;strong data-end=&quot;1301&quot; data-start=&quot;1260&quot;&gt;Version Control &amp;amp; Collaboration Tools&lt;/strong&gt; (Git, GitHub)" style="rounded=0;whiteSpace=wrap;html=1;fontSize=16;" parent="WIyWlLk6GJQsqaUBKTNV-1" vertex="1">
          <mxGeometry x="-5290" y="1050" width="230" height="60" as="geometry" />
        </mxCell>
        <mxCell id="y4hbCwQFAGTeEz3mjHwd-89" value="Level 4: Activity" style="text;html=1;align=center;verticalAlign=middle;resizable=0;points=[];autosize=1;strokeColor=none;fillColor=none;fontSize=16;" parent="WIyWlLk6GJQsqaUBKTNV-1" vertex="1">
          <mxGeometry x="-5375" y="985" width="130" height="30" as="geometry" />
        </mxCell>
        <mxCell id="y4hbCwQFAGTeEz3mjHwd-90" value="&lt;font&gt; Software Requirements Specification (SRS)&lt;/font&gt;" style="rounded=0;whiteSpace=wrap;html=1;fontSize=16;" parent="WIyWlLk6GJQsqaUBKTNV-1" vertex="1">
          <mxGeometry x="-7510" y="1060" width="180" height="60" as="geometry" />
        </mxCell>
        <mxCell id="y4hbCwQFAGTeEz3mjHwd-91" value="&lt;font&gt;security&lt;/font&gt;" style="rounded=0;whiteSpace=wrap;html=1;fontSize=16;" parent="WIyWlLk6GJQsqaUBKTNV-1" vertex="1">
          <mxGeometry x="-8140" y="1060" width="180" height="60" as="geometry" />
        </mxCell>
        <mxCell id="y4hbCwQFAGTeEz3mjHwd-92" value="&lt;font&gt;Performance&lt;/font&gt;" style="rounded=0;whiteSpace=wrap;html=1;fontSize=16;" parent="WIyWlLk6GJQsqaUBKTNV-1" vertex="1">
          <mxGeometry x="-7400" y="960" width="180" height="60" as="geometry" />
        </mxCell>
        <mxCell id="y4hbCwQFAGTeEz3mjHwd-93" value="&lt;font&gt;reporting&lt;/font&gt;" style="rounded=0;whiteSpace=wrap;html=1;fontSize=16;" parent="WIyWlLk6GJQsqaUBKTNV-1" vertex="1">
          <mxGeometry x="-7610" y="960" width="180" height="60" as="geometry" />
        </mxCell>
        <mxCell id="y4hbCwQFAGTeEz3mjHwd-94" value="&lt;font&gt;inventory tracking&lt;/font&gt;" style="rounded=0;whiteSpace=wrap;html=1;fontSize=16;" parent="WIyWlLk6GJQsqaUBKTNV-1" vertex="1">
          <mxGeometry x="-7830" y="960" width="180" height="60" as="geometry" />
        </mxCell>
        <mxCell id="y4hbCwQFAGTeEz3mjHwd-95" value="&lt;font&gt;scalability&lt;/font&gt;" style="rounded=0;whiteSpace=wrap;html=1;fontSize=16;" parent="WIyWlLk6GJQsqaUBKTNV-1" vertex="1">
          <mxGeometry x="-7940" y="1060" width="180" height="60" as="geometry" />
        </mxCell>
        <mxCell id="y4hbCwQFAGTeEz3mjHwd-96" value="&lt;font&gt;Business Rules (e.g., product stock cannot be negative)&lt;/font&gt;" style="rounded=0;whiteSpace=wrap;html=1;fontSize=16;" parent="WIyWlLk6GJQsqaUBKTNV-1" vertex="1">
          <mxGeometry x="-7730" y="1060" width="180" height="60" as="geometry" />
        </mxCell>
        <mxCell id="y4hbCwQFAGTeEz3mjHwd-97" value="&lt;font&gt;authentication&lt;/font&gt;" style="rounded=0;whiteSpace=wrap;html=1;fontSize=16;" parent="WIyWlLk6GJQsqaUBKTNV-1" vertex="1">
          <mxGeometry x="-8036" y="960" width="180" height="60" as="geometry" />
        </mxCell>
        <mxCell id="y4hbCwQFAGTeEz3mjHwd-98" value="&lt;font&gt;Stakeholders (Who will use the system?)&lt;/font&gt;" style="rounded=0;whiteSpace=wrap;html=1;fontSize=16;" parent="WIyWlLk6GJQsqaUBKTNV-1" vertex="1">
          <mxGeometry x="-8240" y="960" width="180" height="60" as="geometry" />
        </mxCell>
        <mxCell id="y4hbCwQFAGTeEz3mjHwd-99" value="Level 4: Activity" style="text;html=1;align=center;verticalAlign=middle;resizable=0;points=[];autosize=1;strokeColor=none;fillColor=none;fontSize=16;" parent="WIyWlLk6GJQsqaUBKTNV-1" vertex="1">
          <mxGeometry x="-7265" y="905" width="130" height="30" as="geometry" />
        </mxCell>
        <mxCell id="y4hbCwQFAGTeEz3mjHwd-110" value="&lt;strong data-end=&quot;695&quot; data-start=&quot;674&quot;&gt;Main Deliverables&lt;/strong&gt; (e.g., working desktop application, reports, documentation)" style="rounded=0;whiteSpace=wrap;html=1;fontSize=16;" parent="WIyWlLk6GJQsqaUBKTNV-1" vertex="1">
          <mxGeometry x="-7130" y="1050" width="380" height="60" as="geometry" />
        </mxCell>
        <mxCell id="y4hbCwQFAGTeEz3mjHwd-111" value="&lt;strong data-end=&quot;847&quot; data-start=&quot;827&quot;&gt;Success Criteria&lt;/strong&gt; (e.g., system must handle 1,000 products without lag)" style="rounded=0;whiteSpace=wrap;html=1;fontSize=16;" parent="WIyWlLk6GJQsqaUBKTNV-1" vertex="1">
          <mxGeometry x="-6740" y="1050" width="400" height="60" as="geometry" />
        </mxCell>
        <mxCell id="y4hbCwQFAGTeEz3mjHwd-114" value="Level 3: Work Components Under Each Work Package" style="text;html=1;align=center;verticalAlign=middle;resizable=0;points=[];autosize=1;strokeColor=none;fillColor=none;fontSize=16;" parent="WIyWlLk6GJQsqaUBKTNV-1" vertex="1">
          <mxGeometry x="-7380" y="485" width="410" height="30" as="geometry" />
        </mxCell>
        <mxCell id="T9TQ2GxorK-crfHRh1-e-10" style="edgeStyle=orthogonalEdgeStyle;curved=1;rounded=0;orthogonalLoop=1;jettySize=auto;html=1;entryX=0.5;entryY=0;entryDx=0;entryDy=0;exitX=0.5;exitY=1;exitDx=0;exitDy=0;fontSize=16;" parent="WIyWlLk6GJQsqaUBKTNV-1" source="y4hbCwQFAGTeEz3mjHwd-118" target="T9TQ2GxorK-crfHRh1-e-7" edge="1">
          <mxGeometry relative="1" as="geometry" />
        </mxCell>
        <mxCell id="T9TQ2GxorK-crfHRh1-e-11" style="edgeStyle=orthogonalEdgeStyle;curved=1;rounded=0;orthogonalLoop=1;jettySize=auto;html=1;entryX=0.5;entryY=0;entryDx=0;entryDy=0;exitX=0.5;exitY=1;exitDx=0;exitDy=0;fontSize=16;" parent="WIyWlLk6GJQsqaUBKTNV-1" source="y4hbCwQFAGTeEz3mjHwd-118" target="T9TQ2GxorK-crfHRh1-e-6" edge="1">
          <mxGeometry relative="1" as="geometry" />
        </mxCell>
        <mxCell id="T9TQ2GxorK-crfHRh1-e-12" style="edgeStyle=orthogonalEdgeStyle;curved=1;rounded=0;orthogonalLoop=1;jettySize=auto;html=1;exitX=0.5;exitY=1;exitDx=0;exitDy=0;fontSize=16;" parent="WIyWlLk6GJQsqaUBKTNV-1" source="y4hbCwQFAGTeEz3mjHwd-118" target="T9TQ2GxorK-crfHRh1-e-5" edge="1">
          <mxGeometry relative="1" as="geometry" />
        </mxCell>
        <mxCell id="y4hbCwQFAGTeEz3mjHwd-118" value="&lt;strong data-end=&quot;1432&quot; data-start=&quot;1410&quot;&gt;Application Layers&lt;/strong&gt; (Presentation Layer, Business Logic Layer, Data Access Layer)" style="rounded=0;whiteSpace=wrap;html=1;fontSize=16;" parent="WIyWlLk6GJQsqaUBKTNV-1" vertex="1">
          <mxGeometry x="-4325" y="1070" width="320" height="60" as="geometry" />
        </mxCell>
        <mxCell id="y4hbCwQFAGTeEz3mjHwd-119" value="&lt;strong data-end=&quot;1531&quot; data-start=&quot;1506&quot;&gt;Database Architecture&lt;/strong&gt; (Tables, relationships, indexing strategies)" style="rounded=0;whiteSpace=wrap;html=1;fontSize=16;" parent="WIyWlLk6GJQsqaUBKTNV-1" vertex="1">
          <mxGeometry x="-4860" y="960" width="260" height="60" as="geometry" />
        </mxCell>
        <mxCell id="y4hbCwQFAGTeEz3mjHwd-120" value="&lt;strong data-end=&quot;1603&quot; data-start=&quot;1590&quot;&gt;Data Flow&lt;/strong&gt; (How data moves between UI, business logic, and database)" style="rounded=0;whiteSpace=wrap;html=1;fontSize=16;" parent="WIyWlLk6GJQsqaUBKTNV-1" vertex="1">
          <mxGeometry x="-4710" y="1060" width="290" height="60" as="geometry" />
        </mxCell>
        <mxCell id="y4hbCwQFAGTeEz3mjHwd-121" value="&lt;strong data-end=&quot;1694&quot; data-start=&quot;1671&quot;&gt;Security Mechanisms&lt;/strong&gt; (Authentication, authorization, encryption)" style="rounded=0;whiteSpace=wrap;html=1;fontSize=16;" parent="WIyWlLk6GJQsqaUBKTNV-1" vertex="1">
          <mxGeometry x="-4550" y="960" width="270" height="60" as="geometry" />
        </mxCell>
        <mxCell id="y4hbCwQFAGTeEz3mjHwd-134" style="edgeStyle=orthogonalEdgeStyle;curved=1;rounded=0;orthogonalLoop=1;jettySize=auto;html=1;entryX=0.75;entryY=0;entryDx=0;entryDy=0;exitX=0.5;exitY=1;exitDx=0;exitDy=0;fontSize=16;" parent="WIyWlLk6GJQsqaUBKTNV-1" source="y4hbCwQFAGTeEz3mjHwd-122" target="y4hbCwQFAGTeEz3mjHwd-128" edge="1">
          <mxGeometry relative="1" as="geometry" />
        </mxCell>
        <mxCell id="y4hbCwQFAGTeEz3mjHwd-135" style="edgeStyle=orthogonalEdgeStyle;curved=1;rounded=0;orthogonalLoop=1;jettySize=auto;html=1;fontSize=16;" parent="WIyWlLk6GJQsqaUBKTNV-1" source="y4hbCwQFAGTeEz3mjHwd-122" target="y4hbCwQFAGTeEz3mjHwd-124" edge="1">
          <mxGeometry relative="1" as="geometry" />
        </mxCell>
        <mxCell id="y4hbCwQFAGTeEz3mjHwd-138" style="edgeStyle=orthogonalEdgeStyle;curved=1;rounded=0;orthogonalLoop=1;jettySize=auto;html=1;entryX=0.25;entryY=0;entryDx=0;entryDy=0;exitX=0.5;exitY=1;exitDx=0;exitDy=0;fontSize=16;" parent="WIyWlLk6GJQsqaUBKTNV-1" source="y4hbCwQFAGTeEz3mjHwd-122" target="y4hbCwQFAGTeEz3mjHwd-127" edge="1">
          <mxGeometry relative="1" as="geometry" />
        </mxCell>
        <mxCell id="y4hbCwQFAGTeEz3mjHwd-122" value="Create &lt;strong data-end=&quot;1762&quot; data-start=&quot;1750&quot;&gt;Diagrams&lt;/strong&gt;" style="rounded=0;whiteSpace=wrap;html=1;fontSize=16;" parent="WIyWlLk6GJQsqaUBKTNV-1" vertex="1">
          <mxGeometry x="-4990" y="1050" width="230" height="60" as="geometry" />
        </mxCell>
        <mxCell id="y4hbCwQFAGTeEz3mjHwd-123" style="edgeStyle=orthogonalEdgeStyle;curved=1;rounded=0;orthogonalLoop=1;jettySize=auto;html=1;exitX=0.5;exitY=1;exitDx=0;exitDy=0;fontSize=16;" parent="WIyWlLk6GJQsqaUBKTNV-1" source="y4hbCwQFAGTeEz3mjHwd-122" target="y4hbCwQFAGTeEz3mjHwd-122" edge="1">
          <mxGeometry relative="1" as="geometry" />
        </mxCell>
        <mxCell id="y4hbCwQFAGTeEz3mjHwd-124" value="&lt;strong data-end=&quot;1849&quot; data-start=&quot;1832&quot;&gt;Class Diagram&lt;/strong&gt; (Main objects &amp;amp; relationships)" style="rounded=0;whiteSpace=wrap;html=1;fontSize=16;" parent="WIyWlLk6GJQsqaUBKTNV-1" vertex="1">
          <mxGeometry x="-5185" y="1485" width="230" height="60" as="geometry" />
        </mxCell>
        <mxCell id="y4hbCwQFAGTeEz3mjHwd-125" value="Level 5 : Activty" style="text;html=1;align=center;verticalAlign=middle;resizable=0;points=[];autosize=1;strokeColor=none;fillColor=none;fontSize=16;" parent="WIyWlLk6GJQsqaUBKTNV-1" vertex="1">
          <mxGeometry x="-5620" y="1460" width="130" height="30" as="geometry" />
        </mxCell>
        <mxCell id="y4hbCwQFAGTeEz3mjHwd-126" value="&lt;strong data-end=&quot;1924&quot; data-start=&quot;1887&quot;&gt;ERD (Entity-Relationship Diagram)&lt;/strong&gt; for Database" style="rounded=0;whiteSpace=wrap;html=1;fontSize=16;" parent="WIyWlLk6GJQsqaUBKTNV-1" vertex="1">
          <mxGeometry x="-4915" y="1485" width="230" height="60" as="geometry" />
        </mxCell>
        <mxCell id="y4hbCwQFAGTeEz3mjHwd-127" value="System Flow Diagram" style="rounded=0;whiteSpace=wrap;html=1;fontSize=16;" parent="WIyWlLk6GJQsqaUBKTNV-1" vertex="1">
          <mxGeometry x="-5210" y="1590" width="230" height="60" as="geometry" />
        </mxCell>
        <mxCell id="y4hbCwQFAGTeEz3mjHwd-128" value="&lt;strong data-end=&quot;1789&quot; data-start=&quot;1768&quot;&gt;Use Case Diagrams&lt;/strong&gt; (User interactions with the system)" style="rounded=0;whiteSpace=wrap;html=1;fontSize=16;" parent="WIyWlLk6GJQsqaUBKTNV-1" vertex="1">
          <mxGeometry x="-4940" y="1590" width="230" height="60" as="geometry" />
        </mxCell>
        <mxCell id="T9TQ2GxorK-crfHRh1-e-48" style="edgeStyle=orthogonalEdgeStyle;curved=1;rounded=0;orthogonalLoop=1;jettySize=auto;html=1;exitX=0.5;exitY=1;exitDx=0;exitDy=0;fontSize=16;" parent="WIyWlLk6GJQsqaUBKTNV-1" source="T9TQ2GxorK-crfHRh1-e-5" target="T9TQ2GxorK-crfHRh1-e-46" edge="1">
          <mxGeometry relative="1" as="geometry" />
        </mxCell>
        <mxCell id="65cO1v7DSOVo5D8rHl5I-6" style="edgeStyle=orthogonalEdgeStyle;curved=1;rounded=0;orthogonalLoop=1;jettySize=auto;html=1;entryX=0.5;entryY=0;entryDx=0;entryDy=0;exitX=0.5;exitY=1;exitDx=0;exitDy=0;fontSize=16;" parent="WIyWlLk6GJQsqaUBKTNV-1" source="T9TQ2GxorK-crfHRh1-e-5" target="65cO1v7DSOVo5D8rHl5I-5" edge="1">
          <mxGeometry relative="1" as="geometry" />
        </mxCell>
        <mxCell id="65cO1v7DSOVo5D8rHl5I-7" style="edgeStyle=orthogonalEdgeStyle;curved=1;rounded=0;orthogonalLoop=1;jettySize=auto;html=1;entryX=0.5;entryY=0;entryDx=0;entryDy=0;exitX=0.5;exitY=1;exitDx=0;exitDy=0;fontSize=16;" parent="WIyWlLk6GJQsqaUBKTNV-1" source="T9TQ2GxorK-crfHRh1-e-5" target="65cO1v7DSOVo5D8rHl5I-4" edge="1">
          <mxGeometry relative="1" as="geometry" />
        </mxCell>
        <mxCell id="T9TQ2GxorK-crfHRh1-e-5" value="Presentation Layer (UI)" style="rounded=0;whiteSpace=wrap;html=1;fontSize=16;" parent="WIyWlLk6GJQsqaUBKTNV-1" vertex="1">
          <mxGeometry x="-4600" y="1520" width="230" height="60" as="geometry" />
        </mxCell>
        <mxCell id="T9TQ2GxorK-crfHRh1-e-25" style="edgeStyle=orthogonalEdgeStyle;curved=1;rounded=0;orthogonalLoop=1;jettySize=auto;html=1;exitX=0.5;exitY=1;exitDx=0;exitDy=0;fontSize=16;" parent="WIyWlLk6GJQsqaUBKTNV-1" source="T9TQ2GxorK-crfHRh1-e-6" target="T9TQ2GxorK-crfHRh1-e-24" edge="1">
          <mxGeometry relative="1" as="geometry" />
        </mxCell>
        <mxCell id="T9TQ2GxorK-crfHRh1-e-26" style="edgeStyle=orthogonalEdgeStyle;curved=1;rounded=0;orthogonalLoop=1;jettySize=auto;html=1;exitX=0.5;exitY=1;exitDx=0;exitDy=0;fontSize=16;" parent="WIyWlLk6GJQsqaUBKTNV-1" source="T9TQ2GxorK-crfHRh1-e-6" target="T9TQ2GxorK-crfHRh1-e-17" edge="1">
          <mxGeometry relative="1" as="geometry" />
        </mxCell>
        <mxCell id="T9TQ2GxorK-crfHRh1-e-27" style="edgeStyle=orthogonalEdgeStyle;curved=1;rounded=0;orthogonalLoop=1;jettySize=auto;html=1;entryX=0.5;entryY=0;entryDx=0;entryDy=0;exitX=0.5;exitY=1;exitDx=0;exitDy=0;fontSize=16;" parent="WIyWlLk6GJQsqaUBKTNV-1" source="T9TQ2GxorK-crfHRh1-e-6" target="T9TQ2GxorK-crfHRh1-e-20" edge="1">
          <mxGeometry relative="1" as="geometry" />
        </mxCell>
        <mxCell id="T9TQ2GxorK-crfHRh1-e-28" style="edgeStyle=orthogonalEdgeStyle;curved=1;rounded=0;orthogonalLoop=1;jettySize=auto;html=1;entryX=0.5;entryY=0;entryDx=0;entryDy=0;exitX=0.5;exitY=1;exitDx=0;exitDy=0;fontSize=16;" parent="WIyWlLk6GJQsqaUBKTNV-1" source="T9TQ2GxorK-crfHRh1-e-6" target="T9TQ2GxorK-crfHRh1-e-18" edge="1">
          <mxGeometry relative="1" as="geometry" />
        </mxCell>
        <mxCell id="T9TQ2GxorK-crfHRh1-e-29" style="edgeStyle=orthogonalEdgeStyle;curved=1;rounded=0;orthogonalLoop=1;jettySize=auto;html=1;exitX=0.5;exitY=1;exitDx=0;exitDy=0;fontSize=16;" parent="WIyWlLk6GJQsqaUBKTNV-1" source="T9TQ2GxorK-crfHRh1-e-6" target="T9TQ2GxorK-crfHRh1-e-23" edge="1">
          <mxGeometry relative="1" as="geometry" />
        </mxCell>
        <mxCell id="T9TQ2GxorK-crfHRh1-e-30" style="edgeStyle=orthogonalEdgeStyle;curved=1;rounded=0;orthogonalLoop=1;jettySize=auto;html=1;exitX=0.5;exitY=1;exitDx=0;exitDy=0;fontSize=16;" parent="WIyWlLk6GJQsqaUBKTNV-1" source="T9TQ2GxorK-crfHRh1-e-6" target="T9TQ2GxorK-crfHRh1-e-16" edge="1">
          <mxGeometry relative="1" as="geometry" />
        </mxCell>
        <mxCell id="T9TQ2GxorK-crfHRh1-e-31" style="edgeStyle=orthogonalEdgeStyle;curved=1;rounded=0;orthogonalLoop=1;jettySize=auto;html=1;exitX=0.5;exitY=1;exitDx=0;exitDy=0;fontSize=16;" parent="WIyWlLk6GJQsqaUBKTNV-1" source="T9TQ2GxorK-crfHRh1-e-6" target="T9TQ2GxorK-crfHRh1-e-21" edge="1">
          <mxGeometry relative="1" as="geometry" />
        </mxCell>
        <mxCell id="T9TQ2GxorK-crfHRh1-e-32" style="edgeStyle=orthogonalEdgeStyle;curved=1;rounded=0;orthogonalLoop=1;jettySize=auto;html=1;exitX=0.5;exitY=1;exitDx=0;exitDy=0;fontSize=16;" parent="WIyWlLk6GJQsqaUBKTNV-1" source="T9TQ2GxorK-crfHRh1-e-6" target="T9TQ2GxorK-crfHRh1-e-19" edge="1">
          <mxGeometry relative="1" as="geometry" />
        </mxCell>
        <mxCell id="T9TQ2GxorK-crfHRh1-e-33" style="edgeStyle=orthogonalEdgeStyle;curved=1;rounded=0;orthogonalLoop=1;jettySize=auto;html=1;entryX=0.5;entryY=0;entryDx=0;entryDy=0;exitX=0.5;exitY=1;exitDx=0;exitDy=0;fontSize=16;" parent="WIyWlLk6GJQsqaUBKTNV-1" source="T9TQ2GxorK-crfHRh1-e-6" target="T9TQ2GxorK-crfHRh1-e-22" edge="1">
          <mxGeometry relative="1" as="geometry" />
        </mxCell>
        <mxCell id="T9TQ2GxorK-crfHRh1-e-6" value="Business Logic Layer (BLL)" style="rounded=0;whiteSpace=wrap;html=1;fontSize=16;" parent="WIyWlLk6GJQsqaUBKTNV-1" vertex="1">
          <mxGeometry x="-4095" y="1520" width="230" height="60" as="geometry" />
        </mxCell>
        <mxCell id="T9TQ2GxorK-crfHRh1-e-70" style="edgeStyle=orthogonalEdgeStyle;curved=1;rounded=0;orthogonalLoop=1;jettySize=auto;html=1;entryX=0.5;entryY=0;entryDx=0;entryDy=0;exitX=0.5;exitY=1;exitDx=0;exitDy=0;fontSize=16;" parent="WIyWlLk6GJQsqaUBKTNV-1" source="T9TQ2GxorK-crfHRh1-e-7" target="T9TQ2GxorK-crfHRh1-e-66" edge="1">
          <mxGeometry relative="1" as="geometry" />
        </mxCell>
        <mxCell id="T9TQ2GxorK-crfHRh1-e-71" style="edgeStyle=orthogonalEdgeStyle;curved=1;rounded=0;orthogonalLoop=1;jettySize=auto;html=1;exitX=0.5;exitY=1;exitDx=0;exitDy=0;fontSize=16;" parent="WIyWlLk6GJQsqaUBKTNV-1" source="T9TQ2GxorK-crfHRh1-e-7" target="T9TQ2GxorK-crfHRh1-e-65" edge="1">
          <mxGeometry relative="1" as="geometry" />
        </mxCell>
        <mxCell id="T9TQ2GxorK-crfHRh1-e-72" style="edgeStyle=orthogonalEdgeStyle;curved=1;rounded=0;orthogonalLoop=1;jettySize=auto;html=1;entryX=0.5;entryY=0;entryDx=0;entryDy=0;exitX=0.5;exitY=1;exitDx=0;exitDy=0;fontSize=16;" parent="WIyWlLk6GJQsqaUBKTNV-1" source="T9TQ2GxorK-crfHRh1-e-7" target="T9TQ2GxorK-crfHRh1-e-64" edge="1">
          <mxGeometry relative="1" as="geometry" />
        </mxCell>
        <mxCell id="T9TQ2GxorK-crfHRh1-e-73" style="edgeStyle=orthogonalEdgeStyle;curved=1;rounded=0;orthogonalLoop=1;jettySize=auto;html=1;exitX=0.5;exitY=1;exitDx=0;exitDy=0;fontSize=16;" parent="WIyWlLk6GJQsqaUBKTNV-1" source="T9TQ2GxorK-crfHRh1-e-7" target="T9TQ2GxorK-crfHRh1-e-63" edge="1">
          <mxGeometry relative="1" as="geometry" />
        </mxCell>
        <mxCell id="T9TQ2GxorK-crfHRh1-e-74" style="edgeStyle=orthogonalEdgeStyle;curved=1;rounded=0;orthogonalLoop=1;jettySize=auto;html=1;exitX=0.5;exitY=1;exitDx=0;exitDy=0;fontSize=16;" parent="WIyWlLk6GJQsqaUBKTNV-1" source="T9TQ2GxorK-crfHRh1-e-7" target="T9TQ2GxorK-crfHRh1-e-62" edge="1">
          <mxGeometry relative="1" as="geometry" />
        </mxCell>
        <mxCell id="65cO1v7DSOVo5D8rHl5I-69" style="edgeStyle=orthogonalEdgeStyle;curved=1;rounded=0;orthogonalLoop=1;jettySize=auto;html=1;entryX=0.5;entryY=0;entryDx=0;entryDy=0;exitX=0.5;exitY=1;exitDx=0;exitDy=0;fontSize=16;" parent="WIyWlLk6GJQsqaUBKTNV-1" source="T9TQ2GxorK-crfHRh1-e-7" target="65cO1v7DSOVo5D8rHl5I-59" edge="1">
          <mxGeometry relative="1" as="geometry" />
        </mxCell>
        <mxCell id="65cO1v7DSOVo5D8rHl5I-70" style="edgeStyle=orthogonalEdgeStyle;curved=1;rounded=0;orthogonalLoop=1;jettySize=auto;html=1;exitX=0.5;exitY=1;exitDx=0;exitDy=0;fontSize=16;" parent="WIyWlLk6GJQsqaUBKTNV-1" source="T9TQ2GxorK-crfHRh1-e-7" target="65cO1v7DSOVo5D8rHl5I-61" edge="1">
          <mxGeometry relative="1" as="geometry" />
        </mxCell>
        <mxCell id="65cO1v7DSOVo5D8rHl5I-71" style="edgeStyle=orthogonalEdgeStyle;curved=1;rounded=0;orthogonalLoop=1;jettySize=auto;html=1;entryX=0.5;entryY=0;entryDx=0;entryDy=0;exitX=0.5;exitY=1;exitDx=0;exitDy=0;fontSize=16;" parent="WIyWlLk6GJQsqaUBKTNV-1" source="T9TQ2GxorK-crfHRh1-e-7" target="65cO1v7DSOVo5D8rHl5I-64" edge="1">
          <mxGeometry relative="1" as="geometry" />
        </mxCell>
        <mxCell id="T9TQ2GxorK-crfHRh1-e-7" value="Data Access Layer (DAL)" style="rounded=0;whiteSpace=wrap;html=1;fontSize=16;" parent="WIyWlLk6GJQsqaUBKTNV-1" vertex="1">
          <mxGeometry x="-2470" y="1545" width="230" height="60" as="geometry" />
        </mxCell>
        <mxCell id="T9TQ2GxorK-crfHRh1-e-9" style="edgeStyle=orthogonalEdgeStyle;curved=1;rounded=0;orthogonalLoop=1;jettySize=auto;html=1;entryX=0.761;entryY=0.25;entryDx=0;entryDy=0;entryPerimeter=0;fontSize=16;" parent="WIyWlLk6GJQsqaUBKTNV-1" source="y4hbCwQFAGTeEz3mjHwd-122" target="y4hbCwQFAGTeEz3mjHwd-126" edge="1">
          <mxGeometry relative="1" as="geometry" />
        </mxCell>
        <mxCell id="T9TQ2GxorK-crfHRh1-e-16" value="&lt;strong data-end=&quot;1795&quot; data-start=&quot;1777&quot;&gt;ProductManager&lt;/strong&gt;" style="rounded=0;whiteSpace=wrap;html=1;fontSize=16;" parent="WIyWlLk6GJQsqaUBKTNV-1" vertex="1">
          <mxGeometry x="-3910.5" y="2505" width="210" height="60" as="geometry" />
        </mxCell>
        <mxCell id="T9TQ2GxorK-crfHRh1-e-17" value="&lt;strong data-end=&quot;1948&quot; data-start=&quot;1929&quot;&gt;PurchaseManager&lt;/strong&gt;" style="rounded=0;whiteSpace=wrap;html=1;fontSize=16;" parent="WIyWlLk6GJQsqaUBKTNV-1" vertex="1">
          <mxGeometry x="-3435.5" y="2505" width="210" height="60" as="geometry" />
        </mxCell>
        <mxCell id="T9TQ2GxorK-crfHRh1-e-18" value="&amp;nbsp;Supplier Management" style="rounded=0;whiteSpace=wrap;html=1;fontSize=16;" parent="WIyWlLk6GJQsqaUBKTNV-1" vertex="1">
          <mxGeometry x="-4859" y="2505" width="210" height="60" as="geometry" />
        </mxCell>
        <mxCell id="T9TQ2GxorK-crfHRh1-e-19" value="Analytics" style="rounded=0;whiteSpace=wrap;html=1;fontSize=16;" parent="WIyWlLk6GJQsqaUBKTNV-1" vertex="1">
          <mxGeometry x="-4390" y="2505" width="210" height="60" as="geometry" />
        </mxCell>
        <mxCell id="T9TQ2GxorK-crfHRh1-e-20" value="&lt;strong data-end=&quot;1880&quot; data-start=&quot;1864&quot;&gt;SalesManager&lt;/strong&gt;" style="rounded=0;whiteSpace=wrap;html=1;fontSize=16;" parent="WIyWlLk6GJQsqaUBKTNV-1" vertex="1">
          <mxGeometry x="-3678.5" y="2505" width="210" height="60" as="geometry" />
        </mxCell>
        <mxCell id="T9TQ2GxorK-crfHRh1-e-21" value="Customer Management" style="rounded=0;whiteSpace=wrap;html=1;fontSize=16;" parent="WIyWlLk6GJQsqaUBKTNV-1" vertex="1">
          <mxGeometry x="-4627" y="2505" width="210" height="60" as="geometry" />
        </mxCell>
        <mxCell id="T9TQ2GxorK-crfHRh1-e-22" value="&lt;strong data-end=&quot;2017&quot; data-start=&quot;2000&quot;&gt;ReportManager&lt;/strong&gt;" style="rounded=0;whiteSpace=wrap;html=1;fontSize=16;" parent="WIyWlLk6GJQsqaUBKTNV-1" vertex="1">
          <mxGeometry x="-3210.5" y="2505" width="210" height="60" as="geometry" />
        </mxCell>
        <mxCell id="65cO1v7DSOVo5D8rHl5I-57" style="edgeStyle=orthogonalEdgeStyle;curved=1;rounded=0;orthogonalLoop=1;jettySize=auto;html=1;entryX=0.5;entryY=0;entryDx=0;entryDy=0;fontSize=16;" parent="WIyWlLk6GJQsqaUBKTNV-1" source="T9TQ2GxorK-crfHRh1-e-23" target="65cO1v7DSOVo5D8rHl5I-54" edge="1">
          <mxGeometry relative="1" as="geometry" />
        </mxCell>
        <mxCell id="T9TQ2GxorK-crfHRh1-e-23" value="clsEmployeeManager" style="rounded=0;whiteSpace=wrap;html=1;fontSize=16;" parent="WIyWlLk6GJQsqaUBKTNV-1" vertex="1">
          <mxGeometry x="-5114" y="2505" width="210" height="60" as="geometry" />
        </mxCell>
        <mxCell id="T9TQ2GxorK-crfHRh1-e-24" value="&lt;strong data-end=&quot;1726&quot; data-start=&quot;1711&quot;&gt;UserManager&lt;/strong&gt;" style="rounded=0;whiteSpace=wrap;html=1;fontSize=16;" parent="WIyWlLk6GJQsqaUBKTNV-1" vertex="1">
          <mxGeometry x="-4155.5" y="2505" width="210" height="60" as="geometry" />
        </mxCell>
        <mxCell id="T9TQ2GxorK-crfHRh1-e-37" value="Users Form" style="rounded=0;whiteSpace=wrap;html=1;fontSize=16;" parent="WIyWlLk6GJQsqaUBKTNV-1" vertex="1">
          <mxGeometry x="-6765" y="3360" width="180" height="60" as="geometry" />
        </mxCell>
        <mxCell id="T9TQ2GxorK-crfHRh1-e-38" value="&lt;strong data-end=&quot;1470&quot; data-start=&quot;1455&quot;&gt;ProductForm&lt;/strong&gt;" style="rounded=0;whiteSpace=wrap;html=1;fontSize=16;" parent="WIyWlLk6GJQsqaUBKTNV-1" vertex="1">
          <mxGeometry x="-6565" y="3360" width="180" height="60" as="geometry" />
        </mxCell>
        <mxCell id="T9TQ2GxorK-crfHRh1-e-39" value="Product Batches Form" style="rounded=0;whiteSpace=wrap;html=1;fontSize=16;" parent="WIyWlLk6GJQsqaUBKTNV-1" vertex="1">
          <mxGeometry x="-7820" y="3360" width="180" height="60" as="geometry" />
        </mxCell>
        <mxCell id="T9TQ2GxorK-crfHRh1-e-40" value="&lt;strong data-end=&quot;1517&quot; data-start=&quot;1504&quot;&gt;SalesForm&lt;/strong&gt;" style="rounded=0;whiteSpace=wrap;html=1;fontSize=16;" parent="WIyWlLk6GJQsqaUBKTNV-1" vertex="1">
          <mxGeometry x="-7180" y="3360" width="180" height="60" as="geometry" />
        </mxCell>
        <mxCell id="T9TQ2GxorK-crfHRh1-e-41" value="&lt;strong data-end=&quot;1568&quot; data-start=&quot;1552&quot;&gt;PurchaseForm&lt;/strong&gt;" style="rounded=0;whiteSpace=wrap;html=1;fontSize=16;" parent="WIyWlLk6GJQsqaUBKTNV-1" vertex="1">
          <mxGeometry x="-7380" y="3360" width="180" height="60" as="geometry" />
        </mxCell>
        <mxCell id="T9TQ2GxorK-crfHRh1-e-42" value="Customers Form" style="rounded=0;whiteSpace=wrap;html=1;fontSize=16;" parent="WIyWlLk6GJQsqaUBKTNV-1" vertex="1">
          <mxGeometry x="-6150" y="3360" width="180" height="60" as="geometry" />
        </mxCell>
        <mxCell id="T9TQ2GxorK-crfHRh1-e-43" value="Customers Form" style="rounded=0;whiteSpace=wrap;html=1;fontSize=16;" parent="WIyWlLk6GJQsqaUBKTNV-1" vertex="1">
          <mxGeometry x="-6360" y="3360" width="180" height="60" as="geometry" />
        </mxCell>
        <mxCell id="T9TQ2GxorK-crfHRh1-e-44" value="&lt;strong data-end=&quot;1618&quot; data-start=&quot;1603&quot;&gt;ReportsForm&lt;/strong&gt;" style="rounded=0;whiteSpace=wrap;html=1;fontSize=16;" parent="WIyWlLk6GJQsqaUBKTNV-1" vertex="1">
          <mxGeometry x="-7590" y="3360" width="180" height="60" as="geometry" />
        </mxCell>
        <mxCell id="ou1Um3V3Lqt0a47ZtSMg-3" style="edgeStyle=orthogonalEdgeStyle;curved=1;rounded=0;orthogonalLoop=1;jettySize=auto;html=1;entryX=0.5;entryY=0;entryDx=0;entryDy=0;exitX=0.5;exitY=1;exitDx=0;exitDy=0;fontSize=16;" parent="WIyWlLk6GJQsqaUBKTNV-1" source="T9TQ2GxorK-crfHRh1-e-45" target="T9TQ2GxorK-crfHRh1-e-38" edge="1">
          <mxGeometry relative="1" as="geometry" />
        </mxCell>
        <mxCell id="ou1Um3V3Lqt0a47ZtSMg-4" style="edgeStyle=orthogonalEdgeStyle;curved=1;rounded=0;orthogonalLoop=1;jettySize=auto;html=1;entryX=0.5;entryY=0;entryDx=0;entryDy=0;fontSize=16;" parent="WIyWlLk6GJQsqaUBKTNV-1" source="T9TQ2GxorK-crfHRh1-e-45" target="T9TQ2GxorK-crfHRh1-e-37" edge="1">
          <mxGeometry relative="1" as="geometry" />
        </mxCell>
        <mxCell id="ou1Um3V3Lqt0a47ZtSMg-5" style="edgeStyle=orthogonalEdgeStyle;curved=1;rounded=0;orthogonalLoop=1;jettySize=auto;html=1;entryX=0.5;entryY=0;entryDx=0;entryDy=0;fontSize=16;" parent="WIyWlLk6GJQsqaUBKTNV-1" source="T9TQ2GxorK-crfHRh1-e-45" target="ou1Um3V3Lqt0a47ZtSMg-18" edge="1">
          <mxGeometry relative="1" as="geometry">
            <mxPoint x="-6874.941176470588" y="3360" as="targetPoint" />
          </mxGeometry>
        </mxCell>
        <mxCell id="ou1Um3V3Lqt0a47ZtSMg-6" style="edgeStyle=orthogonalEdgeStyle;curved=1;rounded=0;orthogonalLoop=1;jettySize=auto;html=1;entryX=0.5;entryY=0;entryDx=0;entryDy=0;exitX=0.5;exitY=1;exitDx=0;exitDy=0;fontSize=16;" parent="WIyWlLk6GJQsqaUBKTNV-1" source="T9TQ2GxorK-crfHRh1-e-45" target="T9TQ2GxorK-crfHRh1-e-40" edge="1">
          <mxGeometry relative="1" as="geometry" />
        </mxCell>
        <mxCell id="ou1Um3V3Lqt0a47ZtSMg-7" style="edgeStyle=orthogonalEdgeStyle;curved=1;rounded=0;orthogonalLoop=1;jettySize=auto;html=1;entryX=0.5;entryY=0;entryDx=0;entryDy=0;exitX=0.5;exitY=1;exitDx=0;exitDy=0;fontSize=16;" parent="WIyWlLk6GJQsqaUBKTNV-1" source="T9TQ2GxorK-crfHRh1-e-45" target="T9TQ2GxorK-crfHRh1-e-41" edge="1">
          <mxGeometry relative="1" as="geometry" />
        </mxCell>
        <mxCell id="ou1Um3V3Lqt0a47ZtSMg-8" style="edgeStyle=orthogonalEdgeStyle;curved=1;rounded=0;orthogonalLoop=1;jettySize=auto;html=1;exitX=0.5;exitY=1;exitDx=0;exitDy=0;fontSize=16;" parent="WIyWlLk6GJQsqaUBKTNV-1" source="T9TQ2GxorK-crfHRh1-e-45" target="T9TQ2GxorK-crfHRh1-e-44" edge="1">
          <mxGeometry relative="1" as="geometry" />
        </mxCell>
        <mxCell id="ou1Um3V3Lqt0a47ZtSMg-9" style="edgeStyle=orthogonalEdgeStyle;curved=1;rounded=0;orthogonalLoop=1;jettySize=auto;html=1;exitX=0.5;exitY=1;exitDx=0;exitDy=0;fontSize=16;" parent="WIyWlLk6GJQsqaUBKTNV-1" source="T9TQ2GxorK-crfHRh1-e-45" target="T9TQ2GxorK-crfHRh1-e-43" edge="1">
          <mxGeometry relative="1" as="geometry" />
        </mxCell>
        <mxCell id="ou1Um3V3Lqt0a47ZtSMg-10" style="edgeStyle=orthogonalEdgeStyle;curved=1;rounded=0;orthogonalLoop=1;jettySize=auto;html=1;exitX=0.5;exitY=1;exitDx=0;exitDy=0;fontSize=16;" parent="WIyWlLk6GJQsqaUBKTNV-1" source="T9TQ2GxorK-crfHRh1-e-45" target="T9TQ2GxorK-crfHRh1-e-42" edge="1">
          <mxGeometry relative="1" as="geometry" />
        </mxCell>
        <mxCell id="ou1Um3V3Lqt0a47ZtSMg-11" style="edgeStyle=orthogonalEdgeStyle;curved=1;rounded=0;orthogonalLoop=1;jettySize=auto;html=1;exitX=0.5;exitY=1;exitDx=0;exitDy=0;fontSize=16;" parent="WIyWlLk6GJQsqaUBKTNV-1" source="T9TQ2GxorK-crfHRh1-e-45" target="T9TQ2GxorK-crfHRh1-e-39" edge="1">
          <mxGeometry relative="1" as="geometry" />
        </mxCell>
        <mxCell id="T9TQ2GxorK-crfHRh1-e-45" value="&lt;strong data-end=&quot;1422&quot; data-start=&quot;1405&quot;&gt;MainFrom&lt;/strong&gt;" style="rounded=0;whiteSpace=wrap;html=1;fontSize=16;" parent="WIyWlLk6GJQsqaUBKTNV-1" vertex="1">
          <mxGeometry x="-6832" y="2990" width="180" height="60" as="geometry" />
        </mxCell>
        <mxCell id="ou1Um3V3Lqt0a47ZtSMg-2" style="edgeStyle=orthogonalEdgeStyle;curved=1;rounded=0;orthogonalLoop=1;jettySize=auto;html=1;exitX=0.5;exitY=1;exitDx=0;exitDy=0;fontSize=16;" parent="WIyWlLk6GJQsqaUBKTNV-1" source="T9TQ2GxorK-crfHRh1-e-46" target="T9TQ2GxorK-crfHRh1-e-45" edge="1">
          <mxGeometry relative="1" as="geometry" />
        </mxCell>
        <mxCell id="T9TQ2GxorK-crfHRh1-e-46" value="&lt;strong data-end=&quot;1369&quot; data-start=&quot;1356&quot;&gt;LoginForm&lt;/strong&gt;" style="rounded=0;whiteSpace=wrap;html=1;fontSize=16;" parent="WIyWlLk6GJQsqaUBKTNV-1" vertex="1">
          <mxGeometry x="-5985" y="2490" width="180" height="60" as="geometry" />
        </mxCell>
        <mxCell id="T9TQ2GxorK-crfHRh1-e-61" value="Develop Forms" style="rounded=0;whiteSpace=wrap;html=1;fontSize=16;" parent="WIyWlLk6GJQsqaUBKTNV-1" vertex="1">
          <mxGeometry x="580" y="500" width="180" height="60" as="geometry" />
        </mxCell>
        <mxCell id="T9TQ2GxorK-crfHRh1-e-62" value="&lt;strong data-end=&quot;2117&quot; data-start=&quot;2106&quot;&gt;UserDAL&lt;/strong&gt;" style="rounded=0;whiteSpace=wrap;html=1;fontSize=16;" parent="WIyWlLk6GJQsqaUBKTNV-1" vertex="1">
          <mxGeometry x="-2660" y="2510" width="210" height="60" as="geometry" />
        </mxCell>
        <mxCell id="T9TQ2GxorK-crfHRh1-e-63" value="&lt;strong data-end=&quot;2175&quot; data-start=&quot;2161&quot;&gt;ProductDAL&lt;/strong&gt;" style="rounded=0;whiteSpace=wrap;html=1;fontSize=16;" parent="WIyWlLk6GJQsqaUBKTNV-1" vertex="1">
          <mxGeometry x="-2415" y="2510" width="210" height="60" as="geometry" />
        </mxCell>
        <mxCell id="T9TQ2GxorK-crfHRh1-e-64" value="&lt;strong data-end=&quot;2224&quot; data-start=&quot;2212&quot;&gt;SalesDAL&lt;/strong&gt;" style="rounded=0;whiteSpace=wrap;html=1;fontSize=16;" parent="WIyWlLk6GJQsqaUBKTNV-1" vertex="1">
          <mxGeometry x="-2155" y="2510" width="210" height="60" as="geometry" />
        </mxCell>
        <mxCell id="T9TQ2GxorK-crfHRh1-e-65" value="&lt;strong data-end=&quot;2288&quot; data-start=&quot;2273&quot;&gt;PurchaseDAL&lt;/strong&gt;" style="rounded=0;whiteSpace=wrap;html=1;fontSize=16;" parent="WIyWlLk6GJQsqaUBKTNV-1" vertex="1">
          <mxGeometry x="-1895" y="2510" width="210" height="60" as="geometry" />
        </mxCell>
        <mxCell id="T9TQ2GxorK-crfHRh1-e-66" value="&lt;strong data-end=&quot;2343&quot; data-start=&quot;2330&quot;&gt;ReportDAL&lt;/strong&gt;" style="rounded=0;whiteSpace=wrap;html=1;fontSize=16;" parent="WIyWlLk6GJQsqaUBKTNV-1" vertex="1">
          <mxGeometry x="-2915" y="2510" width="210" height="60" as="geometry" />
        </mxCell>
        <mxCell id="65cO1v7DSOVo5D8rHl5I-72" style="edgeStyle=orthogonalEdgeStyle;curved=1;rounded=0;orthogonalLoop=1;jettySize=auto;html=1;entryX=0.5;entryY=0;entryDx=0;entryDy=0;" parent="WIyWlLk6GJQsqaUBKTNV-1" source="ou1Um3V3Lqt0a47ZtSMg-18" target="ou1Um3V3Lqt0a47ZtSMg-21" edge="1">
          <mxGeometry relative="1" as="geometry" />
        </mxCell>
        <mxCell id="ou1Um3V3Lqt0a47ZtSMg-18" value="frmListEmployees" style="rounded=0;whiteSpace=wrap;html=1;fontSize=16;" parent="WIyWlLk6GJQsqaUBKTNV-1" vertex="1">
          <mxGeometry x="-6970" y="3360" width="180" height="60" as="geometry" />
        </mxCell>
        <mxCell id="JhYFZ3ytualBZ-5gvpQC-4" style="edgeStyle=orthogonalEdgeStyle;curved=1;rounded=0;orthogonalLoop=1;jettySize=auto;html=1;entryX=0.5;entryY=0;entryDx=0;entryDy=0;" edge="1" parent="WIyWlLk6GJQsqaUBKTNV-1" source="ou1Um3V3Lqt0a47ZtSMg-21" target="ou1Um3V3Lqt0a47ZtSMg-28">
          <mxGeometry relative="1" as="geometry" />
        </mxCell>
        <mxCell id="ou1Um3V3Lqt0a47ZtSMg-21" value="frmEmployeeInfo" style="rounded=0;whiteSpace=wrap;html=1;fontSize=16;" parent="WIyWlLk6GJQsqaUBKTNV-1" vertex="1">
          <mxGeometry x="-6970" y="4120" width="180" height="60" as="geometry" />
        </mxCell>
        <mxCell id="JhYFZ3ytualBZ-5gvpQC-7" style="edgeStyle=orthogonalEdgeStyle;curved=1;rounded=0;orthogonalLoop=1;jettySize=auto;html=1;entryX=0.5;entryY=0;entryDx=0;entryDy=0;" edge="1" parent="WIyWlLk6GJQsqaUBKTNV-1" source="ou1Um3V3Lqt0a47ZtSMg-23" target="JhYFZ3ytualBZ-5gvpQC-11">
          <mxGeometry relative="1" as="geometry">
            <mxPoint x="-7315" y="4760" as="targetPoint" />
          </mxGeometry>
        </mxCell>
        <mxCell id="ou1Um3V3Lqt0a47ZtSMg-23" value="frmEditPerson" style="whiteSpace=wrap;html=1;rounded=0;fontSize=16;" parent="WIyWlLk6GJQsqaUBKTNV-1" vertex="1">
          <mxGeometry x="-7355" y="4620" width="120" height="60" as="geometry" />
        </mxCell>
        <mxCell id="JhYFZ3ytualBZ-5gvpQC-8" style="edgeStyle=orthogonalEdgeStyle;curved=1;rounded=0;orthogonalLoop=1;jettySize=auto;html=1;entryX=0.5;entryY=0;entryDx=0;entryDy=0;" edge="1" parent="WIyWlLk6GJQsqaUBKTNV-1" source="ou1Um3V3Lqt0a47ZtSMg-26" target="65cO1v7DSOVo5D8rHl5I-11">
          <mxGeometry relative="1" as="geometry" />
        </mxCell>
        <mxCell id="ou1Um3V3Lqt0a47ZtSMg-26" value="frmEditEmployee" style="rounded=0;whiteSpace=wrap;html=1;fontSize=16;" parent="WIyWlLk6GJQsqaUBKTNV-1" vertex="1">
          <mxGeometry x="-6375" y="4460" width="160" height="60" as="geometry" />
        </mxCell>
        <mxCell id="JhYFZ3ytualBZ-5gvpQC-5" style="edgeStyle=orthogonalEdgeStyle;curved=1;rounded=0;orthogonalLoop=1;jettySize=auto;html=1;entryX=0.5;entryY=0;entryDx=0;entryDy=0;" edge="1" parent="WIyWlLk6GJQsqaUBKTNV-1" source="ou1Um3V3Lqt0a47ZtSMg-28" target="ou1Um3V3Lqt0a47ZtSMg-26">
          <mxGeometry relative="1" as="geometry" />
        </mxCell>
        <mxCell id="ou1Um3V3Lqt0a47ZtSMg-28" value="ctrlEmployeeCard" style="rounded=0;whiteSpace=wrap;html=1;fontSize=16;" parent="WIyWlLk6GJQsqaUBKTNV-1" vertex="1">
          <mxGeometry x="-6960" y="4300" width="160" height="60" as="geometry" />
        </mxCell>
        <mxCell id="65cO1v7DSOVo5D8rHl5I-9" style="edgeStyle=orthogonalEdgeStyle;curved=1;rounded=0;orthogonalLoop=1;jettySize=auto;html=1;entryX=0.5;entryY=0;entryDx=0;entryDy=0;fontSize=16;" parent="WIyWlLk6GJQsqaUBKTNV-1" source="65cO1v7DSOVo5D8rHl5I-1" target="65cO1v7DSOVo5D8rHl5I-8" edge="1">
          <mxGeometry relative="1" as="geometry" />
        </mxCell>
        <mxCell id="65cO1v7DSOVo5D8rHl5I-1" value="clsPersonManager" style="rounded=0;whiteSpace=wrap;html=1;fontSize=16;" parent="WIyWlLk6GJQsqaUBKTNV-1" vertex="1">
          <mxGeometry x="-5339" y="2810" width="210" height="60" as="geometry" />
        </mxCell>
        <mxCell id="65cO1v7DSOVo5D8rHl5I-4" value="&lt;strong data-end=&quot;1369&quot; data-start=&quot;1356&quot;&gt;App.config&lt;/strong&gt;" style="rounded=0;whiteSpace=wrap;html=1;fontSize=16;" parent="WIyWlLk6GJQsqaUBKTNV-1" vertex="1">
          <mxGeometry x="-6440" y="2490" width="180" height="60" as="geometry" />
        </mxCell>
        <mxCell id="65cO1v7DSOVo5D8rHl5I-5" value="&lt;strong data-end=&quot;1369&quot; data-start=&quot;1356&quot;&gt;app.manifest&lt;/strong&gt;" style="rounded=0;whiteSpace=wrap;html=1;fontSize=16;" parent="WIyWlLk6GJQsqaUBKTNV-1" vertex="1">
          <mxGeometry x="-6202" y="2490" width="180" height="60" as="geometry" />
        </mxCell>
        <mxCell id="65cO1v7DSOVo5D8rHl5I-8" value="BusinessUtil" style="rounded=0;whiteSpace=wrap;html=1;fontSize=16;" parent="WIyWlLk6GJQsqaUBKTNV-1" vertex="1">
          <mxGeometry x="-5375" y="2922.5" width="210" height="60" as="geometry" />
        </mxCell>
        <mxCell id="65cO1v7DSOVo5D8rHl5I-14" style="edgeStyle=orthogonalEdgeStyle;curved=1;rounded=0;orthogonalLoop=1;jettySize=auto;html=1;fontSize=16;" parent="WIyWlLk6GJQsqaUBKTNV-1" source="65cO1v7DSOVo5D8rHl5I-11" target="65cO1v7DSOVo5D8rHl5I-13" edge="1">
          <mxGeometry relative="1" as="geometry" />
        </mxCell>
        <mxCell id="65cO1v7DSOVo5D8rHl5I-18" style="edgeStyle=orthogonalEdgeStyle;curved=1;rounded=0;orthogonalLoop=1;jettySize=auto;html=1;exitX=0.5;exitY=1;exitDx=0;exitDy=0;fontSize=16;" parent="WIyWlLk6GJQsqaUBKTNV-1" source="65cO1v7DSOVo5D8rHl5I-11" target="65cO1v7DSOVo5D8rHl5I-15" edge="1">
          <mxGeometry relative="1" as="geometry" />
        </mxCell>
        <mxCell id="65cO1v7DSOVo5D8rHl5I-11" value="PresentationUtility Class&amp;nbsp;&lt;br&gt;In Utilities Folder&lt;br&gt;In Presentation Layer" style="rounded=0;whiteSpace=wrap;html=1;fontSize=16;" parent="WIyWlLk6GJQsqaUBKTNV-1" vertex="1">
          <mxGeometry x="-6410" y="4640" width="250" height="100" as="geometry" />
        </mxCell>
        <mxCell id="65cO1v7DSOVo5D8rHl5I-13" value="ValidationMessages&amp;nbsp;In&lt;br&gt;Utilities Folder&lt;div&gt;In PresentationLayer&lt;/div&gt;" style="rounded=0;whiteSpace=wrap;html=1;fontSize=16;" parent="WIyWlLk6GJQsqaUBKTNV-1" vertex="1">
          <mxGeometry x="-6585" y="4810" width="210" height="80" as="geometry" />
        </mxCell>
        <mxCell id="65cO1v7DSOVo5D8rHl5I-15" value="&lt;span style=&quot;background-color: transparent; color: light-dark(rgb(0, 0, 0), rgb(255, 255, 255));&quot;&gt;&amp;nbsp;SharedUtilities Class Library&lt;/span&gt;" style="whiteSpace=wrap;html=1;rounded=0;fontSize=16;" parent="WIyWlLk6GJQsqaUBKTNV-1" vertex="1">
          <mxGeometry x="-6290" y="4820" width="180" height="60" as="geometry" />
        </mxCell>
        <mxCell id="65cO1v7DSOVo5D8rHl5I-16" value="Validation" style="rounded=0;whiteSpace=wrap;html=1;fontSize=16;" parent="WIyWlLk6GJQsqaUBKTNV-1" vertex="1">
          <mxGeometry x="-6268" y="4955" width="120" height="60" as="geometry" />
        </mxCell>
        <mxCell id="65cO1v7DSOVo5D8rHl5I-17" style="edgeStyle=orthogonalEdgeStyle;curved=1;rounded=0;orthogonalLoop=1;jettySize=auto;html=1;entryX=0.541;entryY=0.026;entryDx=0;entryDy=0;entryPerimeter=0;fontSize=16;" parent="WIyWlLk6GJQsqaUBKTNV-1" source="65cO1v7DSOVo5D8rHl5I-15" target="65cO1v7DSOVo5D8rHl5I-16" edge="1">
          <mxGeometry relative="1" as="geometry" />
        </mxCell>
        <mxCell id="65cO1v7DSOVo5D8rHl5I-58" style="edgeStyle=orthogonalEdgeStyle;curved=1;rounded=0;orthogonalLoop=1;jettySize=auto;html=1;entryX=0.5;entryY=0;entryDx=0;entryDy=0;fontSize=16;" parent="WIyWlLk6GJQsqaUBKTNV-1" source="65cO1v7DSOVo5D8rHl5I-54" target="65cO1v7DSOVo5D8rHl5I-1" edge="1">
          <mxGeometry relative="1" as="geometry" />
        </mxCell>
        <mxCell id="65cO1v7DSOVo5D8rHl5I-54" value="BusinessUtilities" style="rounded=0;whiteSpace=wrap;html=1;fontSize=16;" parent="WIyWlLk6GJQsqaUBKTNV-1" vertex="1">
          <mxGeometry x="-5315" y="2690" width="210" height="60" as="geometry" />
        </mxCell>
        <mxCell id="65cO1v7DSOVo5D8rHl5I-59" value="&lt;strong data-end=&quot;2288&quot; data-start=&quot;2273&quot;&gt;clsEmployeesDAL&lt;/strong&gt;" style="rounded=0;whiteSpace=wrap;html=1;fontSize=16;" parent="WIyWlLk6GJQsqaUBKTNV-1" vertex="1">
          <mxGeometry x="-1654" y="2510" width="210" height="60" as="geometry" />
        </mxCell>
        <mxCell id="65cO1v7DSOVo5D8rHl5I-60" value="&lt;strong data-end=&quot;2288&quot; data-start=&quot;2273&quot;&gt;clsBaseDAL&lt;/strong&gt;" style="rounded=0;whiteSpace=wrap;html=1;fontSize=16;" parent="WIyWlLk6GJQsqaUBKTNV-1" vertex="1">
          <mxGeometry x="-1407" y="2650" width="210" height="60" as="geometry" />
        </mxCell>
        <mxCell id="65cO1v7DSOVo5D8rHl5I-63" style="edgeStyle=orthogonalEdgeStyle;curved=1;rounded=0;orthogonalLoop=1;jettySize=auto;html=1;fontSize=16;" parent="WIyWlLk6GJQsqaUBKTNV-1" source="65cO1v7DSOVo5D8rHl5I-61" target="65cO1v7DSOVo5D8rHl5I-60" edge="1">
          <mxGeometry relative="1" as="geometry" />
        </mxCell>
        <mxCell id="65cO1v7DSOVo5D8rHl5I-61" value="&lt;strong data-end=&quot;2288&quot; data-start=&quot;2273&quot;&gt;clsPeopleDAL&lt;/strong&gt;" style="rounded=0;whiteSpace=wrap;html=1;fontSize=16;" parent="WIyWlLk6GJQsqaUBKTNV-1" vertex="1">
          <mxGeometry x="-1409" y="2510" width="210" height="60" as="geometry" />
        </mxCell>
        <mxCell id="65cO1v7DSOVo5D8rHl5I-66" style="edgeStyle=orthogonalEdgeStyle;curved=1;rounded=0;orthogonalLoop=1;jettySize=auto;html=1;entryX=0.5;entryY=0;entryDx=0;entryDy=0;fontSize=16;" parent="WIyWlLk6GJQsqaUBKTNV-1" source="65cO1v7DSOVo5D8rHl5I-64" target="65cO1v7DSOVo5D8rHl5I-65" edge="1">
          <mxGeometry relative="1" as="geometry" />
        </mxCell>
        <mxCell id="65cO1v7DSOVo5D8rHl5I-64" value="&lt;strong data-end=&quot;2288&quot; data-start=&quot;2273&quot;&gt;clsBaseDAL&lt;/strong&gt;" style="rounded=0;whiteSpace=wrap;html=1;fontSize=16;" parent="WIyWlLk6GJQsqaUBKTNV-1" vertex="1">
          <mxGeometry x="-1165" y="2510" width="210" height="60" as="geometry" />
        </mxCell>
        <mxCell id="65cO1v7DSOVo5D8rHl5I-68" style="edgeStyle=orthogonalEdgeStyle;curved=1;rounded=0;orthogonalLoop=1;jettySize=auto;html=1;fontSize=16;" parent="WIyWlLk6GJQsqaUBKTNV-1" source="65cO1v7DSOVo5D8rHl5I-65" target="65cO1v7DSOVo5D8rHl5I-67" edge="1">
          <mxGeometry relative="1" as="geometry" />
        </mxCell>
        <mxCell id="65cO1v7DSOVo5D8rHl5I-65" value="&lt;b&gt;SharedUtiliteis&lt;/b&gt;" style="rounded=0;whiteSpace=wrap;html=1;fontSize=16;" parent="WIyWlLk6GJQsqaUBKTNV-1" vertex="1">
          <mxGeometry x="-1150" y="2650" width="210" height="60" as="geometry" />
        </mxCell>
        <mxCell id="65cO1v7DSOVo5D8rHl5I-67" value="ConfigHelper" style="rounded=0;whiteSpace=wrap;html=1;fontSize=16;" parent="WIyWlLk6GJQsqaUBKTNV-1" vertex="1">
          <mxGeometry x="-1150" y="2790" width="210" height="60" as="geometry" />
        </mxCell>
        <mxCell id="JhYFZ3ytualBZ-5gvpQC-1" value="ctrlPersonCard In &lt;br&gt;Utilities Folder&lt;div&gt;In PresentationLayer&lt;/div&gt;" style="rounded=0;whiteSpace=wrap;html=1;fontSize=16;" vertex="1" parent="WIyWlLk6GJQsqaUBKTNV-1">
          <mxGeometry x="-7405" y="4440" width="230" height="100" as="geometry" />
        </mxCell>
        <mxCell id="JhYFZ3ytualBZ-5gvpQC-2" style="edgeStyle=orthogonalEdgeStyle;rounded=0;orthogonalLoop=1;jettySize=auto;html=1;entryX=0.416;entryY=0.039;entryDx=0;entryDy=0;entryPerimeter=0;curved=1;" edge="1" parent="WIyWlLk6GJQsqaUBKTNV-1" source="ou1Um3V3Lqt0a47ZtSMg-28" target="JhYFZ3ytualBZ-5gvpQC-1">
          <mxGeometry relative="1" as="geometry" />
        </mxCell>
        <mxCell id="JhYFZ3ytualBZ-5gvpQC-6" style="edgeStyle=orthogonalEdgeStyle;curved=1;rounded=0;orthogonalLoop=1;jettySize=auto;html=1;entryX=0.622;entryY=0.106;entryDx=0;entryDy=0;entryPerimeter=0;" edge="1" parent="WIyWlLk6GJQsqaUBKTNV-1" source="JhYFZ3ytualBZ-5gvpQC-1" target="ou1Um3V3Lqt0a47ZtSMg-23">
          <mxGeometry relative="1" as="geometry" />
        </mxCell>
        <mxCell id="JhYFZ3ytualBZ-5gvpQC-9" style="edgeStyle=orthogonalEdgeStyle;curved=1;rounded=0;orthogonalLoop=1;jettySize=auto;html=1;fontSize=16;" edge="1" parent="WIyWlLk6GJQsqaUBKTNV-1" source="JhYFZ3ytualBZ-5gvpQC-11" target="JhYFZ3ytualBZ-5gvpQC-12">
          <mxGeometry relative="1" as="geometry" />
        </mxCell>
        <mxCell id="JhYFZ3ytualBZ-5gvpQC-10" style="edgeStyle=orthogonalEdgeStyle;curved=1;rounded=0;orthogonalLoop=1;jettySize=auto;html=1;exitX=0.5;exitY=1;exitDx=0;exitDy=0;fontSize=16;" edge="1" parent="WIyWlLk6GJQsqaUBKTNV-1" source="JhYFZ3ytualBZ-5gvpQC-11" target="JhYFZ3ytualBZ-5gvpQC-13">
          <mxGeometry relative="1" as="geometry" />
        </mxCell>
        <mxCell id="JhYFZ3ytualBZ-5gvpQC-11" value="PresentationUtility Class&amp;nbsp;&lt;br&gt;In Utilities Folder&lt;br&gt;In Presentation Layer" style="rounded=0;whiteSpace=wrap;html=1;fontSize=16;" vertex="1" parent="WIyWlLk6GJQsqaUBKTNV-1">
          <mxGeometry x="-7395" y="4810" width="250" height="100" as="geometry" />
        </mxCell>
        <mxCell id="JhYFZ3ytualBZ-5gvpQC-12" value="ValidationMessages&amp;nbsp;In&lt;br&gt;Utilities Folder&lt;div&gt;In PresentationLayer&lt;/div&gt;" style="rounded=0;whiteSpace=wrap;html=1;fontSize=16;" vertex="1" parent="WIyWlLk6GJQsqaUBKTNV-1">
          <mxGeometry x="-7570" y="4980" width="210" height="80" as="geometry" />
        </mxCell>
        <mxCell id="JhYFZ3ytualBZ-5gvpQC-13" value="&lt;span style=&quot;background-color: transparent; color: light-dark(rgb(0, 0, 0), rgb(255, 255, 255));&quot;&gt;&amp;nbsp;SharedUtilities Class Library&lt;/span&gt;" style="whiteSpace=wrap;html=1;rounded=0;fontSize=16;" vertex="1" parent="WIyWlLk6GJQsqaUBKTNV-1">
          <mxGeometry x="-7275" y="4990" width="180" height="60" as="geometry" />
        </mxCell>
        <mxCell id="JhYFZ3ytualBZ-5gvpQC-14" value="Validation" style="rounded=0;whiteSpace=wrap;html=1;fontSize=16;" vertex="1" parent="WIyWlLk6GJQsqaUBKTNV-1">
          <mxGeometry x="-7253" y="5125" width="120" height="60" as="geometry" />
        </mxCell>
        <mxCell id="JhYFZ3ytualBZ-5gvpQC-15" style="edgeStyle=orthogonalEdgeStyle;curved=1;rounded=0;orthogonalLoop=1;jettySize=auto;html=1;entryX=0.541;entryY=0.026;entryDx=0;entryDy=0;entryPerimeter=0;fontSize=16;" edge="1" parent="WIyWlLk6GJQsqaUBKTNV-1" source="JhYFZ3ytualBZ-5gvpQC-13" target="JhYFZ3ytualBZ-5gvpQC-14">
          <mxGeometry relative="1" as="geometry" />
        </mxCell>
      </root>
    </mxGraphModel>
  </diagram>
</mxfile>
